<?xml version="1.0" standalone="no"?>
<!DOCTYPE svg PUBLIC "-//W3C//DTD SVG 20010904//EN"
 "http://www.w3.org/TR/2001/REC-SVG-20010904/DTD/svg10.dtd">
<svg version="1.0" xmlns="http://www.w3.org/2000/svg"
 width="260.000000pt" height="260.000000pt" viewBox="0 0 260.000000 260.000000"
 preserveAspectRatio="xMidYMid meet">
<metadata>
Created by potrace 1.14, written by Peter Selinger 2001-2017
</metadata>
<g transform="translate(0.000000,260.000000) scale(0.100000,-0.100000)"
fill="#000000" stroke="none">
<path d="M2050 2199 c-138 -84 -614 -441 -855 -642 l-29 -24 74 -35 c152 -71
256 -175 329 -330 27 -56 39 -73 46 -63 6 7 42 50 80 96 199 235 579 758 595
818 18 67 -23 151 -91 186 -41 22 -108 19 -149 -6z"/>
<path d="M1036 1409 c-41 -48 -82 -121 -87 -157 -4 -20 3 -26 48 -42 125 -44
253 -176 293 -302 6 -21 17 -38 23 -38 30 0 136 62 174 102 42 42 42 44 32 83
-21 78 -83 179 -150 246 -71 72 -184 136 -256 146 -37 5 -42 2 -77 -38z"/>
<path d="M805 1120 c-59 -10 -89 -25 -135 -66 -50 -45 -74 -89 -96 -179 -26
-103 -82 -155 -169 -155 -47 0 -91 -23 -98 -52 -15 -56 97 -176 217 -232 100
-48 161 -59 277 -54 89 4 107 9 172 41 90 45 171 121 206 196 22 47 26 70 26
141 0 73 -4 93 -29 145 -73 149 -227 238 -371 215z"/>
</g>
</svg>
