<svg id="Logo_Dark" data-name="Logo Dark" xmlns="http://www.w3.org/2000/svg" viewBox="0 0 148.13 26.19"><defs><style>.cls-1{fill:#1d1e21;}</style></defs><title>Logo-Dark</title><path class="cls-1" d="M8.14,23.64c0-.07.13-.09.26-.06a1.21,1.21,0,0,1,.39.24,1.66,1.66,0,0,1,.36.47,1.19,1.19,0,0,1,.17.63,2.26,2.26,0,0,1-.22.76,11.34,11.34,0,0,1-.61,1.19,15.35,15.35,0,0,1-.91,1.36,10.17,10.17,0,0,1-1.15,1.29,7,7,0,0,1-1.29.95,2.66,2.66,0,0,1-1.35.38,1.53,1.53,0,0,1-.6-.17,3.54,3.54,0,0,1-.78-.46,3.55,3.55,0,0,1-.68-.66,1.24,1.24,0,0,1-.3-.79,5.47,5.47,0,0,1,.23-1.3q.24-.86.6-1.83c.25-.66.51-1.34.79-2s.55-1.32.79-1.88.46-1,.64-1.4l.32-.62c.08-.09.21-.09.37,0a1.86,1.86,0,0,1,.47.43,4,4,0,0,1,.4.61,1.34,1.34,0,0,1,.17.56A3.86,3.86,0,0,1,6,22c-.16.4-.36.87-.6,1.43l-.76,1.77c-.27.64-.51,1.22-.72,1.75s-.36,1-.47,1.33-.11.52,0,.52A2.42,2.42,0,0,0,5,28.25,7.32,7.32,0,0,0,6.26,26.9a13.58,13.58,0,0,0,1.08-1.7C7.67,24.61,7.93,24.09,8.14,23.64Zm-6.31,4.2c0-.09.07-.21.13-.35s.09-.25.15-.4.12-.33.19-.53a1.76,1.76,0,0,1,.1-.3c0-.11.08-.22.11-.33l.12-.34a2.41,2.41,0,0,1,.15-.33c.08-.24.17-.49.27-.74s.21-.5.32-.76L3.66,23c.1-.26.2-.5.3-.74L4.07,22a1.16,1.16,0,0,1,.06-.15,1,1,0,0,1,0-.14,1.59,1.59,0,0,1,.08-.22A4.72,4.72,0,0,0,4.46,21l.15-.4a.77.77,0,0,0,.06-.15.76.76,0,0,0,0-.11l0-.1h0l-.17.33c-.06.12-.12.25-.18.4s-.14.33-.22.51l-.45,1c-.14.3-.3.7-.5,1.21s-.4,1-.58,1.49-.32.94-.45,1.35L2,27.08a3.21,3.21,0,0,0-.11.41.47.47,0,0,0,0,.16.18.18,0,0,1,0,.11S1.83,27.83,1.83,27.84Zm1-2c0-.1.05-.19.07-.26L3,25.38A.53.53,0,0,0,3,25.19a.49.49,0,0,1-.06.17l-.1.2-.09.26c-.09.2-.17.41-.25.64l-.26.75-.12.38c0,.13-.08.25-.11.38s-.05.22-.08.34a1.91,1.91,0,0,0-.06.33,1,1,0,0,0,0,.27v.22a.15.15,0,0,0,0,.12.06.06,0,0,0,0,.05.06.06,0,0,1,0-.05s0-.05,0-.12a2.72,2.72,0,0,1,.07-.49c0-.09.05-.2.08-.31L2.11,28l.25-.76c0-.12.06-.25.1-.37l.13-.36a2.84,2.84,0,0,1,.13-.35C2.76,26.05,2.79,25.94,2.82,25.85Zm3.83-7a.42.42,0,0,1-.26-.15,2.78,2.78,0,0,1-.32-.35,2.19,2.19,0,0,1-.26-.41,1.91,1.91,0,0,1-.13-.31A2.49,2.49,0,0,1,5.83,17a9.7,9.7,0,0,1,.37-.95,9.18,9.18,0,0,1,.46-.89c.16-.27.29-.4.39-.4a.69.69,0,0,1,.41.23,4.54,4.54,0,0,1,.45.52c.14.19.27.37.37.54a1,1,0,0,1,.16.35,1.59,1.59,0,0,1-.23.46c-.16.26-.34.53-.55.81s-.41.55-.61.78S6.72,18.84,6.65,18.84Zm-.13,9.07a1,1,0,0,0,.14-.15l.16-.19L7,27.36c0-.07.09-.14.14-.21a1.37,1.37,0,0,0,.15-.21,2.39,2.39,0,0,1,.13-.21l.12-.21a1.3,1.3,0,0,0,.11-.19,1.22,1.22,0,0,0,.07-.17A.41.41,0,0,1,7.77,26a.3.3,0,0,1,0-.1l-.07.1-.08.12a.8.8,0,0,0-.08.16,4.17,4.17,0,0,0-.26.38l-.12.21a1.37,1.37,0,0,1-.15.21,1.37,1.37,0,0,0-.15.21c0,.07-.09.14-.14.21l-.14.19a1.15,1.15,0,0,0-.14.17l-.19.25s0,.07-.08.08l.08-.08A.83.83,0,0,0,6.52,27.91Zm1.69-2.27c0-.07,0-.14.07-.19a1.07,1.07,0,0,1,.07-.15l.07-.13-.07.13-.09.14a.39.39,0,0,0-.09.17,1.19,1.19,0,0,1-.12.22,2,2,0,0,0-.14.25c0,.08-.08.17-.13.25s-.11.17-.16.27l-.32.51-.13.23c0,.07-.1.14-.14.21a1.4,1.4,0,0,1-.12.18.35.35,0,0,1-.09.11l-.06.09,0,0,0,0s0,0,0,0l0,0a.64.64,0,0,1,.1-.13.59.59,0,0,0,.13-.17c0-.07.09-.14.14-.21l.16-.21.31-.51c.06-.09.11-.18.16-.27L8,26.12l.12-.25Z" transform="translate(-1.43 -11.9)"/><path class="cls-1" d="M13.78,23.72c0-.07.14-.06.3,0a2.44,2.44,0,0,1,.47.37,2.58,2.58,0,0,1,.4.5.44.44,0,0,1,.07.44c-.23.47-.51,1-.83,1.71a13,13,0,0,1-1.1,1.91,7.11,7.11,0,0,1-1.43,1.55,2.87,2.87,0,0,1-1.81.63A2.32,2.32,0,0,1,9,30.64,3.23,3.23,0,0,1,8,30.05a3.54,3.54,0,0,1-.75-.88A2.08,2.08,0,0,1,7,28.05a6.36,6.36,0,0,1,.26-1.6c.17-.67.4-1.41.68-2.22s.61-1.67,1-2.57S9.62,19.87,10,19s.76-1.73,1.12-2.54.69-1.52,1-2.14.52-1.13.69-1.52a5.74,5.74,0,0,0,.27-.62c0-.17.07-.25.21-.25a.81.81,0,0,1,.28.13,4.49,4.49,0,0,1,.46.36,3.16,3.16,0,0,1,.45.51,1,1,0,0,1,.2.56,2.79,2.79,0,0,1-.27.73c-.17.4-.4.9-.68,1.51s-.6,1.3-1,2.07-.73,1.58-1.1,2.42-.74,1.68-1.11,2.53-.68,1.68-1,2.46-.5,1.49-.68,2.14a6.55,6.55,0,0,0-.26,1.6q0,.42.48.42a1.87,1.87,0,0,0,1-.29,4.11,4.11,0,0,0,.91-.75,8.63,8.63,0,0,0,.85-1.08q.39-.6.75-1.23c.24-.42.46-.83.67-1.23S13.63,24,13.78,23.72ZM8.09,25.19,8,25.44c0,.06,0,.12-.07.17a.56.56,0,0,0,0,.15q.1-.26.21-.57l.24-.63c.09-.24.2-.51.31-.82.07-.15.13-.31.19-.47s.12-.33.19-.5l.21-.51c.07-.18.14-.36.21-.56l.47-1.16c.16-.39.33-.78.5-1.17s.33-.81.5-1.19.34-.76.51-1.13.32-.71.48-1.05l.42-.95c.14-.29.26-.56.37-.8l.26-.61c.09-.19.16-.38.23-.54-.07.15-.15.33-.25.52s-.19.37-.3.61l-.39.78L11.8,16l-.49,1-.52,1.12-.51,1.19-.49,1.2c-.15.39-.3.77-.46,1.14-.07.19-.14.38-.2.56s-.13.35-.2.53-.13.36-.19.52-.11.32-.17.47c-.11.31-.2.59-.28.83S8.15,25,8.09,25.19ZM8.5,28.1a.55.55,0,0,0,0-.17.82.82,0,0,1,.06-.19,2.81,2.81,0,0,1,.12-.48L8.8,27c0-.09,0-.19.08-.3s.06-.2.1-.3.07-.2.11-.31l.23-.66c.09-.22.17-.44.25-.67q.25-.69.51-1.32.12-.32.24-.6l.22-.54c.07-.17.14-.32.19-.45l.15-.35a1.66,1.66,0,0,0,.13-.32l0,.09,0,.09a.31.31,0,0,1,0,.12c-.08.17-.21.43-.38.8l-.23.54c-.09.18-.17.38-.25.59l-.27.65c-.09.21-.18.44-.26.66s-.17.47-.25.68-.16.44-.23.67a2.81,2.81,0,0,1-.1.31l-.09.3c0,.11-.06.21-.08.3a2,2,0,0,1-.07.26,1.68,1.68,0,0,0-.06.27,1.87,1.87,0,0,1-.07.22l0,.2c0,.06,0,.12,0,.18a1.69,1.69,0,0,0,0,.25v0A1.69,1.69,0,0,1,8.5,28.1Zm4.25-13.28c.06-.13.11-.24.15-.35s.08-.19.1-.26a1.36,1.36,0,0,0,.11-.25,1.58,1.58,0,0,1-.11.23,1.85,1.85,0,0,1-.12.26c-.06.11-.11.22-.17.35l-.21.43-.21.45c-.07.16-.15.32-.23.49a4.83,4.83,0,0,0-.23.52c-.17.34-.32.68-.45,1l-.2.47-.17.42a3,3,0,0,0-.14.37c0,.1-.07.19-.1.28l-.08.17,0,.06c0-.07.06-.15.1-.23l.12-.26.16-.37c.07-.13.13-.27.2-.42s.13-.31.2-.47.28-.64.44-1l.24-.5c.08-.17.15-.34.22-.51s.14-.3.2-.45S12.68,15,12.75,14.82Z" transform="translate(-1.43 -11.9)"/><path class="cls-1" d="M19.42,23.72c0-.07.14-.06.3,0a2.44,2.44,0,0,1,.47.37,3,3,0,0,1,.4.5.47.47,0,0,1,.07.44c-.24.47-.51,1-.83,1.71a13,13,0,0,1-1.1,1.91,7.11,7.11,0,0,1-1.43,1.55,2.87,2.87,0,0,1-1.81.63,2.37,2.37,0,0,1-.89-.21,3.36,3.36,0,0,1-.94-.59,3.5,3.5,0,0,1-.74-.88,2.09,2.09,0,0,1-.32-1.12,6.85,6.85,0,0,1,.26-1.6q.27-1,.69-2.22c.28-.82.61-1.67,1-2.57s.74-1.79,1.12-2.67.77-1.73,1.13-2.54.69-1.52,1-2.14.52-1.13.69-1.52a5.74,5.74,0,0,0,.27-.62c0-.17.07-.25.21-.25a.81.81,0,0,1,.28.13,4.49,4.49,0,0,1,.46.36,3.1,3.1,0,0,1,.44.51.92.92,0,0,1,.2.56,2.6,2.6,0,0,1-.26.73c-.17.4-.4.9-.68,1.51s-.61,1.3-1,2.07-.73,1.58-1.1,2.42-.74,1.68-1.11,2.53-.69,1.68-1,2.46-.51,1.49-.68,2.14a6.1,6.1,0,0,0-.26,1.6q0,.42.48.42a1.87,1.87,0,0,0,1-.29,4.11,4.11,0,0,0,.91-.75,7.75,7.75,0,0,0,.84-1.08c.27-.4.52-.81.76-1.23s.46-.83.66-1.23S19.27,24,19.42,23.72Zm-5.69,1.47a2.3,2.3,0,0,1-.09.25l-.06.17a.34.34,0,0,0,0,.15q.11-.26.21-.57l.24-.63.31-.82c.07-.15.13-.31.19-.47s.12-.33.19-.5l.21-.51c.07-.18.14-.36.21-.56l.47-1.16.49-1.17c.17-.41.34-.81.51-1.19l.5-1.13L17.56,16l.42-.95c.14-.29.26-.56.37-.8l.26-.61.23-.54c-.07.15-.15.33-.25.52l-.31.61-.39.78-.45.94L17,17l-.52,1.12c-.17.39-.35.79-.51,1.19l-.49,1.2c-.15.39-.31.77-.46,1.14-.07.19-.14.38-.2.56s-.13.35-.2.53-.13.36-.19.52-.11.32-.17.47c-.11.31-.2.59-.28.83S13.78,25,13.73,25.19Zm.41,2.91,0-.17a1.8,1.8,0,0,1,.05-.19,2.85,2.85,0,0,1,.13-.48,2.76,2.76,0,0,0,.08-.27q0-.14.09-.3l.09-.3.12-.31.23-.66c.08-.22.17-.44.25-.67q.25-.69.51-1.32.12-.32.24-.6l.22-.54c.07-.17.13-.32.19-.45l.15-.35a1.59,1.59,0,0,0,.12-.32l0,.09,0,.09a.31.31,0,0,1-.05.12c-.09.17-.21.43-.38.8l-.23.54c-.09.18-.17.38-.26.59s-.17.43-.26.65-.18.44-.26.66l-.25.68c-.09.22-.16.44-.23.67a2.81,2.81,0,0,1-.1.31c0,.1-.07.2-.09.3s-.06.21-.08.3a2,2,0,0,1-.07.26,1.68,1.68,0,0,0-.06.27,1.87,1.87,0,0,1-.07.22l0,.2a1.09,1.09,0,0,0,0,.18,1.69,1.69,0,0,0,0,.25v0A1.69,1.69,0,0,1,14.14,28.1Zm4.25-13.28c.06-.13.11-.24.15-.35l.1-.26a2.72,2.72,0,0,0,.11-.25l-.11.23-.12.26a2.85,2.85,0,0,0-.17.35l-.21.43-.21.45c-.07.16-.15.32-.23.49a4.9,4.9,0,0,0-.24.52c-.16.34-.31.68-.44,1l-.2.47q-.09.22-.18.42c-.05.14-.1.26-.13.37s-.07.19-.1.28l-.08.17a.1.1,0,0,0,0,.06c0-.07.06-.15.1-.23l.12-.26.16-.37c.07-.13.13-.27.2-.42s.13-.31.2-.47.28-.64.44-1l.24-.5c.08-.17.15-.34.22-.51s.14-.3.2-.45S18.32,15,18.39,14.82Z" transform="translate(-1.43 -11.9)"/><path class="cls-1" d="M29.73,23.7c.06-.1.16-.11.3,0a1.59,1.59,0,0,1,.44.36,2.1,2.1,0,0,1,.34.5.48.48,0,0,1,.06.42c-.31.53-.72,1.14-1.21,1.82A19.93,19.93,0,0,1,28,28.71a11.72,11.72,0,0,1-1.8,1.52,3.13,3.13,0,0,1-1.75.62,1.28,1.28,0,0,1-.69-.19,1.87,1.87,0,0,1-.54-.47,2.25,2.25,0,0,1-.34-.6,1.29,1.29,0,0,1-.09-.55,4.25,4.25,0,0,1,.17-.68c.1-.33.23-.73.4-1.19-.37.51-.73,1-1.1,1.42a12.46,12.46,0,0,1-1.08,1.17,5.85,5.85,0,0,1-1,.8,2.06,2.06,0,0,1-1,.29,1.42,1.42,0,0,1-.56-.15,2.37,2.37,0,0,1-.62-.46,2.12,2.12,0,0,1-.48-.71,1.91,1.91,0,0,1-.15-1,4,4,0,0,1,.33-1.14c.2-.52.45-1.1.73-1.74s.6-1.32.93-2,.63-1.36.91-2,.52-1.12.71-1.56a3.56,3.56,0,0,0,.3-.84c0-.11.06-.17.14-.17a.48.48,0,0,1,.27.13,2.71,2.71,0,0,1,.35.34,3.37,3.37,0,0,1,.34.43,3.14,3.14,0,0,1,.24.42.79.79,0,0,1,.09.3,2.79,2.79,0,0,1-.27.66l-.66,1.34L21,24.48c-.31.62-.59,1.2-.85,1.77s-.48,1.05-.66,1.49a3.63,3.63,0,0,0-.29.88,2,2,0,0,0,1.26-.7A16,16,0,0,0,22,26.16c.54-.7,1.08-1.46,1.62-2.29s1-1.59,1.47-2.3l1.11-1.75c.31-.47.49-.71.56-.71a.57.57,0,0,1,.45.21,1.9,1.9,0,0,1,.3.5,2.36,2.36,0,0,1,.16.56c0,.18,0,.32,0,.42s-.1.3-.25.7l-.57,1.44c-.23.56-.47,1.17-.72,1.81l-.69,1.79c-.21.55-.38,1-.5,1.36s-.15.53-.09.53a2.16,2.16,0,0,0,1.1-.36,7.11,7.11,0,0,0,1.23-1,16,16,0,0,0,1.29-1.51C28.9,25,29.32,24.36,29.73,23.7ZM18.18,27.07l.09-.23.12-.22c0-.08.06-.17.1-.26a2.39,2.39,0,0,0,.13-.28,1.51,1.51,0,0,0,.15-.28c0-.09.09-.2.15-.31s.19-.41.28-.62.19-.43.3-.64.22-.45.32-.67l.29-.62q.15-.32.27-.6c.07-.19.15-.37.22-.53l.2-.45c.06-.14.11-.26.14-.35a1.12,1.12,0,0,0,0-.13.35.35,0,0,1,0-.11.19.19,0,0,1,0-.08l-.15.3c-.05.09-.11.21-.17.34s-.14.28-.23.43-.15.35-.24.54l-.28.58c-.11.2-.22.4-.32.62s-.2.43-.31.64-.2.45-.3.66-.19.44-.29.65-.17.39-.24.58l-.22.55c-.13.34-.23.61-.3.82a.3.3,0,0,0,0,.14.24.24,0,0,1,0,.09.2.2,0,0,0,0,.09.15.15,0,0,1,0-.09.59.59,0,0,0,0-.08l.06-.13a1,1,0,0,1,.06-.16C18.13,27.2,18.15,27.14,18.18,27.07Zm3.74,1.51.06-.06s0,0,0,0l0-.05-.13.13a.8.8,0,0,0-.16.16l-.21.2-.11.1a.69.69,0,0,1-.13.11l-.13.12-.14.13-.31.25-.32.26a.52.52,0,0,0-.18.1.91.91,0,0,1-.16.11l-.09,0a.19.19,0,0,0-.1.05l-.16.06a.14.14,0,0,1-.09,0,.11.11,0,0,0-.08,0,1,1,0,0,0-.17.06h-.49l-.06,0-.06,0-.11,0a.15.15,0,0,1-.08,0l-.06,0-.07,0,0,0,0,0,.07,0,.06.05.08,0,.11.06.12,0a.39.39,0,0,0,.15,0h.25c.05,0,.07,0,.09,0a.63.63,0,0,0,.19,0l.17,0a.67.67,0,0,1,.19-.09l.08-.05a.14.14,0,0,0,.08-.05.59.59,0,0,0,.19-.11l.17-.1.17-.13.17-.12a.86.86,0,0,1,.14-.13l.15-.13.51-.5.19-.2Zm-1.11-.23a.81.81,0,0,0-.13.11l-.08.1-.09.06,0,0s0,0,.06,0l.09-.08.12-.11.16-.13.15-.14.16-.16.16-.18a4.53,4.53,0,0,0,.57-.67L22.1,27l.1-.1a.64.64,0,0,0,.06-.11l-.06.08-.1.11-.09.13c-.09.09-.18.2-.27.31l-.32.36C21.19,28,21,28.19,20.81,28.35Zm3.28-3.07a.14.14,0,0,0,.05-.09l0-.08a.09.09,0,0,1,0-.06.09.09,0,0,0,0,.06l-.05.07a.33.33,0,0,1-.06.08,2,2,0,0,1-.16.24l-.2.3c-.15.24-.32.49-.5.76a3.65,3.65,0,0,1-.31.43l-.32.43c-.12.16-.22.3-.33.43a3.09,3.09,0,0,1-.33.39l-.31.38-.16.16-.14.16-.46.46a.21.21,0,0,1-.08.06l-.07.05s0,0,0,0,0,0,0,0l.07-.05a.21.21,0,0,0,.08-.06l.21-.19a2.35,2.35,0,0,0,.28-.25,1.79,1.79,0,0,0,.32-.3l.33-.35.32-.41.33-.43a9.36,9.36,0,0,0,.63-.87,3.1,3.1,0,0,0,.26-.41l.22-.37c.07-.11.14-.21.19-.3ZM26,23.57a1.77,1.77,0,0,0-.13.34,1.55,1.55,0,0,1,0,.15l.06-.13a.79.79,0,0,0,.08-.16c0-.06,0-.13.07-.2l.1-.22a1,1,0,0,0,.11-.24,2.31,2.31,0,0,1,.1-.28,2.55,2.55,0,0,0,.13-.29,1.36,1.36,0,0,1,.11-.28c0-.09.07-.18.1-.26a4.23,4.23,0,0,1,.19-.51A.82.82,0,0,0,27,21.3l.05-.15a.34.34,0,0,1,0-.12l-.07.12c0,.05,0,.09-.07.15s0,.12-.07.19l-.1.22-.09.24-.12.29c0,.09-.07.18-.11.28s-.07.19-.11.29a1.39,1.39,0,0,0-.1.26Z" transform="translate(-1.43 -11.9)"/><path class="cls-1" d="M39.49,23.76c.09-.19.21-.26.37-.21a1.1,1.1,0,0,1,.46.34,1.72,1.72,0,0,1,.34.59.75.75,0,0,1,0,.57,15.1,15.1,0,0,1-1.11,1.86,11.27,11.27,0,0,1-1.68,1.87,9.11,9.11,0,0,1-2.24,1.46,6.68,6.68,0,0,1-2.84.61l-.28,0h-.29a2.16,2.16,0,0,1-1.06-.24,2,2,0,0,1-.69-.62,2.27,2.27,0,0,1-.37-.84,2.67,2.67,0,0,1-.06-.88,2.39,2.39,0,0,1,.13-.66,1,1,0,0,1,.2-.32.3.3,0,0,1,.18-.09.08.08,0,0,1,.07.08,1.44,1.44,0,0,0,.25,1,1.55,1.55,0,0,0,.75.52,3,3,0,0,0,1.06.14,3.69,3.69,0,0,0,1.07-.19,2.59,2.59,0,0,0,.84-.45,1,1,0,0,0,.39-.67c0-.19-.11-.35-.37-.48a6.42,6.42,0,0,0-1-.36l-1.29-.36a6.37,6.37,0,0,1-1.28-.53,2.85,2.85,0,0,1-.95-.83,1.92,1.92,0,0,1-.3-1.29,3.17,3.17,0,0,1,.44-1.33,5.24,5.24,0,0,1,.91-1.15,7.44,7.44,0,0,1,1.2-.94,8.34,8.34,0,0,1,1.3-.71,9.09,9.09,0,0,1,1.21-.44,3.41,3.41,0,0,1,.92-.16.81.81,0,0,1,.6.24,1.88,1.88,0,0,1,.39.61,3.44,3.44,0,0,1,.2.78,4.73,4.73,0,0,1,0,.73,2.16,2.16,0,0,1-.19.71A5.74,5.74,0,0,1,36,23.47c-.12.15-.21.23-.25.23h-.31l-.44,0a1.25,1.25,0,0,1-.4-.12.22.22,0,0,1-.16-.23,1.86,1.86,0,0,1,.17-.44l.32-.63.31-.63a1.53,1.53,0,0,0,.17-.45c0-.05-.1-.06-.3,0a4.24,4.24,0,0,0-.77.27,10.19,10.19,0,0,0-1,.49,8.48,8.48,0,0,0-1,.65,5.36,5.36,0,0,0-.81.74,1.25,1.25,0,0,0-.36.76s.12.1.36.17l.89.26c.36.1.75.24,1.17.4a7.57,7.57,0,0,1,1.18.57,3.36,3.36,0,0,1,.9.75,1.5,1.5,0,0,1,.36,1c0,.16,0,.3,0,.42s0,.25,0,.36a8.65,8.65,0,0,0,2.18-2A10.93,10.93,0,0,0,39.49,23.76Zm-9.15-1,.13-.22.14-.22.38-.44a4.57,4.57,0,0,1,.45-.43l.5-.41a8.79,8.79,0,0,1,1-.72c.36-.21.68-.38,1-.52l.41-.19.3-.13.12,0,.09,0h.07l0,0h-.09l-.21.06-.32.12-.41.18-.48.22a3.57,3.57,0,0,0-.49.28l-.54.35L31.9,21a6.42,6.42,0,0,0-.95.86,2.2,2.2,0,0,0-.2.23l-.18.23-.15.22-.12.22a1.11,1.11,0,0,0-.17.4l-.06.19s0,.05,0,.08a.15.15,0,0,0,0,.07.85.85,0,0,0,0,.23v0s0-.06,0-.09l0-.14a.34.34,0,0,1,0-.15l.06-.17.08-.19A2.12,2.12,0,0,1,30.34,22.77Zm.25,0,.18-.22.2-.24.21-.23.19-.21.13-.15.06-.06-.06,0-.09.05a.6.6,0,0,0-.08.08l-.42.42a2.11,2.11,0,0,0-.34.5c-.05.09-.09.14-.1.17a.1.1,0,0,0,0,.06s0,0,0,0l0,0s0-.05,0-.06l0,0Zm3.79,6,.08-.06s0,0,0,0l-.13.07-.17.06a.67.67,0,0,1-.19.09l-.25.07L33.5,29l-.32,0-.32.05h-.31a.76.76,0,0,1-.3,0H32a.28.28,0,0,0-.13,0,.25.25,0,0,1-.12,0l-.12,0a.13.13,0,0,1-.09,0l-.17-.06-.13-.06,0,0,.11.06.07,0,.08,0a.15.15,0,0,0,.1,0l.11,0,.27.06.14,0,.13,0h.63l.33,0,.31-.06.14-.05.15,0a.83.83,0,0,0,.23-.08l.12,0,.09-.05Z" transform="translate(-1.43 -11.9)"/><path class="cls-1" d="M46.43,23.7a.24.24,0,0,1,.35-.11,1.51,1.51,0,0,1,.48.36,2.21,2.21,0,0,1,.37.55.51.51,0,0,1,.07.44c-.3.56-.64,1.19-1,1.87a13.87,13.87,0,0,1-1.35,1.93,8.18,8.18,0,0,1-1.63,1.5,3.29,3.29,0,0,1-1.92.61,2.64,2.64,0,0,1-.88-.19,3.08,3.08,0,0,1-1-.63A3.64,3.64,0,0,1,39,28.89a3.8,3.8,0,0,1-.36-1.74,6.07,6.07,0,0,1,.26-1.36q.27-.93.69-2.13t.93-2.55l1-2.61a7.63,7.63,0,0,1-.82,0H40a1,1,0,0,1-.79-.3,1.36,1.36,0,0,1-.32-.66,1.67,1.67,0,0,1,0-.67c0-.2.12-.3.2-.3h1.5l1,0,.8,0c.54-1.31,1-2.33,1.24-3.05A6.59,6.59,0,0,0,44,12.23c0-.24.09-.34.27-.32a1.24,1.24,0,0,1,.6.28,3.16,3.16,0,0,1,.6.61,1.14,1.14,0,0,1,.27.67,4.33,4.33,0,0,1-.29.78c-.2.45-.5,1.17-.91,2.15l1.84-.09,1.21,0a1.46,1.46,0,0,1,.67.12.85.85,0,0,1,.32.3,1.07,1.07,0,0,1,.12.45c0,.16,0,.33,0,.5a.32.32,0,0,1-.2.34,1.8,1.8,0,0,1-.5.06c-.67,0-1.37,0-2.09.09l-2.16.18c-.36.9-.74,1.87-1.14,2.9s-.77,2-1.1,3-.6,1.86-.81,2.69a8.5,8.5,0,0,0-.31,2c0,.33.09.5.27.5a2.94,2.94,0,0,0,1.71-.6A9.07,9.07,0,0,0,44,27.35a15,15,0,0,0,1.39-1.86C45.8,24.83,46.15,24.23,46.43,23.7Zm-6.9,5.7a.64.64,0,0,0,.13.17l.06.06a.15.15,0,0,1,0-.06.93.93,0,0,0,0-.1l-.08-.11a.63.63,0,0,1-.07-.12.54.54,0,0,0-.07-.13L39.32,29l-.08-.18-.07-.16c0-.05-.05-.1-.08-.16a1,1,0,0,1-.12-.29l0-.12a.29.29,0,0,1,0-.09.11.11,0,0,1,0-.06V28s0,.06,0,.09,0,.08,0,.14a.57.57,0,0,1,0,.14.37.37,0,0,0,0,.16,1.11,1.11,0,0,1,.07.16.89.89,0,0,0,.08.17c.05.11.11.22.17.33A2,2,0,0,0,39.53,29.4Zm.53-6.56c-.08.25-.16.47-.23.67s-.13.37-.17.53l-.13.44a.28.28,0,0,0,0-.11l.05-.13a1.59,1.59,0,0,1,.07-.2c.06-.14.12-.31.19-.51s.16-.41.25-.65L40.5,22c.14-.35.29-.71.43-1.09s.3-.76.46-1.13l.42-1.06a.56.56,0,0,1,0-.12l0-.13a.35.35,0,0,1-.17,0l0,.09,0,.08c-.07.17-.15.37-.23.59s-.18.45-.28.68-.19.46-.27.68l-.21.55-.32.89C40.26,22.34,40.16,22.6,40.06,22.84Zm.08.65a.61.61,0,0,0,.07-.14.94.94,0,0,1,.06-.18c.06-.12.12-.27.19-.44s.06-.15.09-.24l.12-.26.09-.27.1-.24a2.25,2.25,0,0,0,.08-.24l.09-.22.14-.44-.21.42c0,.07-.05.14-.08.22s-.06.15-.08.22a2.72,2.72,0,0,1-.11.25,1.33,1.33,0,0,0-.1.28l-.19.5-.09.23-.08.21a1,1,0,0,0-.06.19,1.31,1.31,0,0,1-.05.15.68.68,0,0,1,0,.13Zm2.7-7.72a2.09,2.09,0,0,1-.1.23.5.5,0,0,0-.05.13,1.21,1.21,0,0,1,0,.14c0,.06-.06.15-.12.28h.15l.09-.28.05-.13a.27.27,0,0,1,0-.12s0-.11.08-.21.18-.46.25-.66a4,4,0,0,1,.21-.52l.07-.18s0-.09,0-.13a.68.68,0,0,1,0-.13,1,1,0,0,0,0,.1.4.4,0,0,0-.07.13c0,.06-.05.12-.08.19l-.22.52C43,15.32,43,15.53,42.84,15.77Z" transform="translate(-1.43 -11.9)"/><path class="cls-1" d="M54.35,23.85a.36.36,0,0,1,.39-.18,1.1,1.1,0,0,1,.53.21,1.33,1.33,0,0,1,.41.44.49.49,0,0,1,0,.49,7.88,7.88,0,0,1-.42.76c-.21.35-.47.75-.79,1.2s-.66.92-1.05,1.4a13.89,13.89,0,0,1-1.19,1.32,7.86,7.86,0,0,1-1.2,1,2,2,0,0,1-1.09.39,1.57,1.57,0,0,1-.45-.14,2.4,2.4,0,0,1-.66-.46,2.71,2.71,0,0,1-.59-.74A2.11,2.11,0,0,1,48,28.45a5,5,0,0,1,.34-1.7A18.23,18.23,0,0,1,49.12,25l.74-1.55a2.71,2.71,0,0,0,.34-1.09c0-.05-.11-.14-.33-.26a3.73,3.73,0,0,0-.62-.28l-.84,1.66-.84,1.66c-.1.2-.22.26-.38.19a1.22,1.22,0,0,1-.44-.37,1.93,1.93,0,0,1-.33-.6.67.67,0,0,1,0-.52c.2-.43.41-.87.62-1.35s.44-.93.65-1.35a5.64,5.64,0,0,1-.7-.42,2.56,2.56,0,0,1-.59-.55,2.81,2.81,0,0,1-.41-.72,2.72,2.72,0,0,1-.16-.94,4.31,4.31,0,0,1,.25-1.35,8.57,8.57,0,0,1,.62-1.44,11.18,11.18,0,0,1,.85-1.34,12.77,12.77,0,0,1,.92-1.13,8.09,8.09,0,0,1,.85-.78,1.19,1.19,0,0,1,.62-.29,1.43,1.43,0,0,1,.64.21,4.09,4.09,0,0,1,.76.54,3.47,3.47,0,0,1,.63.74,1.66,1.66,0,0,1,.26.87,3.94,3.94,0,0,1-.2,1c-.13.43-.32.94-.55,1.53S51,18.28,50.65,19s-.66,1.41-1,2.15l.77.35a5.59,5.59,0,0,1,.76.44,2.38,2.38,0,0,1,.56.53,1,1,0,0,1,.23.6,2.43,2.43,0,0,1-.21.74c-.14.36-.31.77-.5,1.21s-.39.92-.61,1.41-.4.94-.56,1.35a9.06,9.06,0,0,0-.32,1c-.07.26,0,.39.09.39a1.38,1.38,0,0,0,.81-.34,6.52,6.52,0,0,0,.93-.86,12.89,12.89,0,0,0,.92-1.17c.3-.43.58-.84.83-1.23s.47-.74.66-1.05S54.27,24,54.35,23.85Zm-7.14-8.36.12-.21a2.12,2.12,0,0,1,.11-.21l.26-.38a.7.7,0,0,1,.1-.16l.11-.17c.07-.11.13-.21.19-.29l.14-.22.13-.19,0,.05a.1.1,0,0,0,0,0l-.07.07a1,1,0,0,1-.17.21,1.36,1.36,0,0,0-.21.28l-.12.14-.13.17-.25.38-.15.2-.12.2-.26.44a2.14,2.14,0,0,1-.1.22c0,.08-.09.15-.13.22l-.09.22c0,.08-.07.16-.1.23s0,.14-.08.22l-.09.22a2,2,0,0,0-.1.38.49.49,0,0,0,0,.19.57.57,0,0,1,0,.14,1.91,1.91,0,0,0,0,.28.19.19,0,0,0,0,.08.08.08,0,0,1,0,.08v.05a0,0,0,0,0,0,0v-.07a.88.88,0,0,1,0-.16c0-.06,0-.14.07-.26a2.07,2.07,0,0,1,.1-.31l.08-.19c0-.06,0-.12.07-.19a1.8,1.8,0,0,0,.08-.21l.09-.21.21-.42.23-.44Zm-.63,4.59a0,0,0,0,1,0,0l0-.08a1,1,0,0,1-.08-.11l-.07-.15a2.13,2.13,0,0,1-.15-.4.52.52,0,0,1,0-.11.25.25,0,0,0,0-.12.49.49,0,0,0,0-.12.62.62,0,0,1,0-.13v-.23a.86.86,0,0,0,0-.25.76.76,0,0,0,0-.21,2.07,2.07,0,0,1,0-.22.88.88,0,0,0,0-.15.58.58,0,0,1,0-.14.06.06,0,0,1,0,0,.08.08,0,0,0,0,0v0s0,0,0,0a.08.08,0,0,1,0,0,.06.06,0,0,0,0,0,.34.34,0,0,0,0,.12l-.07.17a.3.3,0,0,0,0,.1.13.13,0,0,1,0,.09.75.75,0,0,0,0,.24,1,1,0,0,0,0,.23.83.83,0,0,0,0,.25,1,1,0,0,0,0,.25,1,1,0,0,0,0,.25l.09.2a1.67,1.67,0,0,0,.08.2l.08.15.09.11Zm.78-.9a1.31,1.31,0,0,0,.17.69,1.85,1.85,0,0,0,.5.51c.42-.87.81-1.71,1.16-2.51s.65-1.51.88-2.12.41-1.11.52-1.48.12-.54,0-.54-.22.08-.42.26a6.64,6.64,0,0,0-.65.7c-.24.3-.49.63-.75,1a11.66,11.66,0,0,0-.7,1.17,9.68,9.68,0,0,0-.53,1.21A3.38,3.38,0,0,0,47.36,19.18ZM49,19l.2-.44c.07-.14.13-.29.2-.45s.14-.3.19-.44.11-.29.17-.44.06-.14.08-.2l.09-.2c0-.14.08-.27.12-.38s.12-.41.17-.57,0-.05,0-.08a.25.25,0,0,0,0-.08s0-.05,0-.05v0a.6.6,0,0,1-.08.21l-.1.24a2.88,2.88,0,0,0-.13.31c-.09.24-.19.5-.31.78s-.25.57-.39.86-.25.6-.37.88l-.34.76c-.13.25-.24.5-.34.74h0l.13-.19a1.64,1.64,0,0,1,.12-.22c0-.08.1-.17.15-.29A5.28,5.28,0,0,0,49,19Zm-.54,8.54,0,.06-.06.17c0,.09,0,.17,0,.26a2.91,2.91,0,0,0,0,.31,2.16,2.16,0,0,0,.06.57.47.47,0,0,0,.06.19.08.08,0,0,1,0,.06.11.11,0,0,1,0-.06.28.28,0,0,0,0-.09s0-.06,0-.1a2.28,2.28,0,0,1,0-.27v-.3c0-.1,0-.2,0-.3s0-.18,0-.25a.38.38,0,0,1,0-.19Zm.63-1.66a.19.19,0,0,1,0-.08s0,0,0-.07a0,0,0,0,1,0,0,0,0,0,0,0,0,0s0,0,0,.05a.31.31,0,0,1,0,.08l-.09.21a2.5,2.5,0,0,0-.08.25c0,.1-.06.2-.1.3l-.09.35a1.16,1.16,0,0,0,0,.18c0,.06,0,.13,0,.2l-.06.38,0,.2a1.27,1.27,0,0,0,0,.2.41.41,0,0,0,0,.19,1.34,1.34,0,0,1,0,.19,1.37,1.37,0,0,1,0,.19,1.11,1.11,0,0,0,0,.17.19.19,0,0,1,0,.08.19.19,0,0,0,0,.08.48.48,0,0,0,0,.15.37.37,0,0,0,0,.15.11.11,0,0,0,0,.05.09.09,0,0,0,0,.05.28.28,0,0,0,0,.11.35.35,0,0,1,.05.08l.09.09s0,0,0,0h0l0,0a.24.24,0,0,1-.06-.11.31.31,0,0,1-.11-.19.08.08,0,0,1,0,0l0-.06a.3.3,0,0,1,0-.13.16.16,0,0,1,0-.08,1.06,1.06,0,0,1,0-.16s0-.05,0-.07a1.11,1.11,0,0,1,0-.17v-.38a1.37,1.37,0,0,1,0-.19c0-.07,0-.13,0-.19l0-.19a.75.75,0,0,0,0-.2.51.51,0,0,1,0-.2l0-.19a.55.55,0,0,1,.05-.17c0-.12.06-.24.09-.34a2.81,2.81,0,0,1,.08-.31A1.54,1.54,0,0,1,49.11,25.89Z" transform="translate(-1.43 -11.9)"/><path class="cls-1" d="M65,23.72s.12,0,.22.06a1.85,1.85,0,0,1,.32.35,4.48,4.48,0,0,1,.28.47A.94.94,0,0,1,66,25a2.14,2.14,0,0,1-.23.72,12.5,12.5,0,0,1-.62,1.15c-.26.42-.56.87-.91,1.34a12.63,12.63,0,0,1-1.07,1.29,6.82,6.82,0,0,1-1.12.95,1.84,1.84,0,0,1-1.06.38,1.08,1.08,0,0,1-.61-.23,4.06,4.06,0,0,1-.64-.55,3.32,3.32,0,0,1-.5-.65,1.09,1.09,0,0,1-.2-.57v-.16c-.3.29-.6.57-.9.83s-.6.48-.88.68a5.46,5.46,0,0,1-.82.47,1.73,1.73,0,0,1-.71.18,1.85,1.85,0,0,1-1-.34,5,5,0,0,1-.94-.85,4.68,4.68,0,0,1-.71-1,2.2,2.2,0,0,1-.27-1,4.48,4.48,0,0,1,.41-1.8,9.73,9.73,0,0,1,1.08-1.92,15.12,15.12,0,0,1,1.52-1.82,14.86,14.86,0,0,1,1.7-1.53,10,10,0,0,1,1.66-1.07,3.27,3.27,0,0,1,1.37-.4,1.46,1.46,0,0,1,1.11.47,2.85,2.85,0,0,1,.66,1,2.81,2.81,0,0,1,.21,1c0,.3-.07.46-.19.46a.33.33,0,0,1-.31-.18l-.19-.4a1.31,1.31,0,0,0-.26-.4A.69.69,0,0,0,61,20.9a2.69,2.69,0,0,0-1.2.38,9.42,9.42,0,0,0-1.46,1,15.49,15.49,0,0,0-1.51,1.44A14.63,14.63,0,0,0,55.5,25.4a11,11,0,0,0-1,1.72,4,4,0,0,0-.36,1.54q0,.57.48.57a2.07,2.07,0,0,0,1-.32,7.15,7.15,0,0,0,1.1-.84c.38-.35.75-.73,1.13-1.15s.73-.83,1.06-1.23.62-.77.87-1.12l.62-.81c.11-.18.19-.27.25-.27s.16.07.31.22.32.32.48.5.3.38.43.56a1,1,0,0,1,.19.38,1.69,1.69,0,0,1-.14.36l-.32.7c-.11.28-.24.56-.38.87s-.26.58-.36.84a5.16,5.16,0,0,0-.21.64c0,.17,0,.25.06.25a1.37,1.37,0,0,0,.85-.35,6.05,6.05,0,0,0,.9-.87,10.87,10.87,0,0,0,.85-1.16l.76-1.19.59-1A3.27,3.27,0,0,1,65,23.72ZM53.92,25.15a2.5,2.5,0,0,1,.25-.41l.28-.41.33-.42.32-.42c.11-.14.23-.28.35-.41l.37-.41c.24-.27.49-.52.75-.77l.8-.7.38-.33a4.07,4.07,0,0,1,.38-.28l.38-.28.36-.23a5.55,5.55,0,0,1,.65-.38.35.35,0,0,1,.14-.06.52.52,0,0,0,.13-.06,1.26,1.26,0,0,1,.26-.09l.21-.06a.32.32,0,0,1,.14,0h-.14l-.11,0-.1,0-.13,0-.15,0-.13.07a.35.35,0,0,0-.14.06,2.52,2.52,0,0,0-.34.15,2.79,2.79,0,0,0-.33.19q-.36.21-.75.48c-.26.18-.53.39-.81.61l-.8.69a9.57,9.57,0,0,0-.78.78c-.24.27-.48.55-.71.84l-.33.43-.31.42a9.57,9.57,0,0,0-.52.84,2.06,2.06,0,0,0-.21.42,1.24,1.24,0,0,1-.1.2l-.09.2a2.79,2.79,0,0,0-.14.37l-.09.34a.64.64,0,0,0-.06.16.32.32,0,0,1,0,.14.77.77,0,0,0,0,.15.25.25,0,0,1,0,.12,1.5,1.5,0,0,0,0,.2v.26a.3.3,0,0,1,0-.1V27.4a.15.15,0,0,0,0-.09.5.5,0,0,1,0-.12.47.47,0,0,1,.07-.25,1.33,1.33,0,0,1,.08-.32,5.37,5.37,0,0,1,.25-.69l.19-.38a1.28,1.28,0,0,1,.11-.2ZM58.22,29l.19-.15.14-.14.13-.13a.81.81,0,0,1-.13.11l-.16.11a1.75,1.75,0,0,1-.2.16,1.5,1.5,0,0,1-.23.2l-.27.2-.28.21-.31.21a.91.91,0,0,0-.16.11l-.15.1-.14.09-.16.08-.16.07-.15.08a.39.39,0,0,1-.14,0l-.14,0a.22.22,0,0,1-.12,0,.24.24,0,0,1-.13,0h-.32a.11.11,0,0,0,.07,0l.06,0h.32a.32.32,0,0,0,.14,0l.14,0a.27.27,0,0,0,.14-.05l.15-.05.16-.08.16-.08.16-.08L57,30a.49.49,0,0,1,.15-.1,1.92,1.92,0,0,0,.31-.23l.28-.22a3.16,3.16,0,0,0,.27-.2Zm-1.69-.46s-.05,0-.08.06l0,0,0,0s0-.05.08-.06l.13-.09a.83.83,0,0,1,.17-.12l.18-.15.2-.19a1.8,1.8,0,0,0,.21-.19l.21-.21.2-.21.18-.21a1,1,0,0,0,.17-.2l.16-.18.12-.16a.48.48,0,0,1,.09-.13l.09-.11-.11.11-.1.1-.13.15-.16.18-.18.2-.2.21-.2.21-.4.4-.19.19a1.1,1.1,0,0,1-.16.15.86.86,0,0,0-.17.15Zm2.67-8.39.15-.09.11-.08.1-.07s0,0,0,0h-.08l-.12.07-.18.07-.18.1a1.05,1.05,0,0,0-.2.14l-.22.12a1.43,1.43,0,0,0-.22.15l-.2.16-.2.15-.19.16-.14.14-.14.14-.1.09-.08.08a.29.29,0,0,1,.08-.08l.26-.19L58,21l.43-.32.21-.15.21-.14.19-.13A.52.52,0,0,1,59.2,20.19Z" transform="translate(-1.43 -11.9)"/><path class="cls-1" d="M71.89,23.7a.24.24,0,0,1,.35-.11,1.38,1.38,0,0,1,.47.36,2.26,2.26,0,0,1,.38.55c.1.2.12.34.06.44-.29.56-.64,1.19-1,1.87a14.71,14.71,0,0,1-1.34,1.93,8.46,8.46,0,0,1-1.63,1.5,3.29,3.29,0,0,1-1.92.61,2.59,2.59,0,0,1-.88-.19,3,3,0,0,1-1-.63,3.66,3.66,0,0,1-.87-1.14,3.94,3.94,0,0,1-.35-1.74,5.54,5.54,0,0,1,.26-1.36c.17-.62.4-1.33.68-2.13s.6-1.65.94-2.55.68-1.77,1-2.61a7.63,7.63,0,0,1-.82,0h-.76a1,1,0,0,1-.8-.3,1.34,1.34,0,0,1-.31-.66,1.51,1.51,0,0,1,0-.67c0-.2.11-.3.2-.3H66l1,0,.8,0L69,13.5a7,7,0,0,0,.44-1.27c0-.24.09-.34.28-.32a1.24,1.24,0,0,1,.6.28,3.43,3.43,0,0,1,.59.61,1.09,1.09,0,0,1,.28.67,4,4,0,0,1-.3.78L70,16.4l1.84-.09,1.21,0a1.41,1.41,0,0,1,.66.12.81.81,0,0,1,.33.3.94.94,0,0,1,.11.45c0,.16,0,.33,0,.5s-.06.3-.2.34a1.68,1.68,0,0,1-.49.06c-.67,0-1.37,0-2.09.09s-1.44.11-2.16.18c-.36.9-.75,1.87-1.15,2.9s-.76,2-1.09,3-.6,1.86-.81,2.69a8.61,8.61,0,0,0-.32,2c0,.33.1.5.28.5a2.91,2.91,0,0,0,1.7-.6,9.11,9.11,0,0,0,1.6-1.47,15,15,0,0,0,1.39-1.86C71.26,24.83,71.61,24.23,71.89,23.7ZM65,29.4a.64.64,0,0,0,.13.17l.06.06a.15.15,0,0,1,0-.06l0-.1a1,1,0,0,1-.08-.11.35.35,0,0,1-.07-.12.57.57,0,0,0-.08-.13.8.8,0,0,0-.08-.16.75.75,0,0,1-.08-.18c0-.06-.06-.11-.08-.16l-.07-.16a1.08,1.08,0,0,1-.13-.29l0-.12a.29.29,0,0,1,0-.09.11.11,0,0,1,0-.06V28a.28.28,0,0,0,0,.09s0,.08,0,.14a.58.58,0,0,1,0,.14,1.42,1.42,0,0,0,0,.16l.08.16a.87.87,0,0,0,.07.17l.18.33A1.37,1.37,0,0,0,65,29.4Zm.53-6.56c-.09.25-.16.47-.23.67a4,4,0,0,0-.17.53l-.13.44a.32.32,0,0,0,0-.11s0-.07.06-.13a1.59,1.59,0,0,1,.07-.2c0-.14.12-.31.19-.51s.15-.41.25-.65L66,22l.43-1.09.45-1.13c.16-.38.3-.73.42-1.06l0-.12a.65.65,0,0,1,0-.13.37.37,0,0,1-.17,0,.16.16,0,0,0,0,.09l0,.08-.24.59c-.08.22-.17.45-.27.68s-.19.46-.27.68-.16.4-.21.55c-.12.31-.22.61-.32.89S65.61,22.6,65.52,22.84Zm.08.65a.35.35,0,0,0,.06-.14l.07-.18.19-.44c0-.07.06-.15.09-.24a2.06,2.06,0,0,1,.12-.26c0-.09.06-.18.09-.27l.1-.24a2.25,2.25,0,0,1,.08-.24c0-.08.06-.15.08-.22l.15-.44-.21.42c0,.07,0,.14-.08.22l-.09.22a2.6,2.6,0,0,1-.1.25,2.33,2.33,0,0,0-.11.28l-.19.5a1.55,1.55,0,0,1-.08.23l-.09.21c0,.07,0,.14-.06.19a1.55,1.55,0,0,1,0,.15.68.68,0,0,1,0,.13Zm2.69-7.72c0,.11-.07.19-.09.23a.5.5,0,0,0,0,.13,1.47,1.47,0,0,1-.06.14l-.11.28h.15l.09-.28c0-.05,0-.1,0-.13l0-.12.09-.21c.1-.24.18-.46.25-.66a4,4,0,0,1,.21-.52.94.94,0,0,0,.06-.18s0-.09,0-.13a.33.33,0,0,1,0-.13.3.3,0,0,0,0,.1.41.41,0,0,0-.08.13c0,.06,0,.12-.07.19s-.15.33-.22.52S68.41,15.53,68.29,15.77Z" transform="translate(-1.43 -11.9)"/><path class="cls-1" d="M80.87,23.74a1.3,1.3,0,0,1,.45.4,1.12,1.12,0,0,1,.19.63,2.24,2.24,0,0,1-.26.75,8.52,8.52,0,0,1-.7,1.21,14.75,14.75,0,0,1-1.08,1.4,11.64,11.64,0,0,1-1.39,1.33,7.56,7.56,0,0,1-1.61,1,4.21,4.21,0,0,1-1.76.39,2.27,2.27,0,0,1-1.24-.4,4.77,4.77,0,0,1-1.15-1,5.6,5.6,0,0,1-.84-1.4,3.91,3.91,0,0,1-.33-1.53A5.67,5.67,0,0,1,71.4,25a9.07,9.07,0,0,1,.66-1.64,12.31,12.31,0,0,1,1-1.57,9.39,9.39,0,0,1,1.15-1.32,6.3,6.3,0,0,1,1.24-.92,2.46,2.46,0,0,1,1.21-.35,1.92,1.92,0,0,1,1.2.35,2.4,2.4,0,0,1,.69.78,2.16,2.16,0,0,1,.26.78c0,.23,0,.35,0,.35l-.13,0a1,1,0,0,1,0,.29,3.66,3.66,0,0,1-.3,1.38,5,5,0,0,1-.82,1.32,4.69,4.69,0,0,1-1.19,1,2.82,2.82,0,0,1-1.43.39,2.07,2.07,0,0,1-.94-.19,2.73,2.73,0,0,1-.66-.45,5.79,5.79,0,0,0-.46,2.15,6.06,6.06,0,0,0,0,.73,3.05,3.05,0,0,0,.15.66,1.31,1.31,0,0,0,.3.5.72.72,0,0,0,.52.2A4.12,4.12,0,0,0,75.57,29a6.37,6.37,0,0,0,1.51-.94,8.41,8.41,0,0,0,1.22-1.24,14.59,14.59,0,0,0,.93-1.29c.27-.41.48-.77.64-1.07s.25-.5.31-.6a.42.42,0,0,1,.59-.15Zm-8.35-.59.12-.17.11-.16a.91.91,0,0,1,.11-.16.54.54,0,0,0,.1-.16l.19-.25.19-.22a1.29,1.29,0,0,0,.13-.18.23.23,0,0,0,0-.07l0,0,0,0,0,0,0,0a.23.23,0,0,1,0,.07l-.15.16-.19.2-.1.12a.58.58,0,0,0-.11.15.76.76,0,0,0-.11.14l-.12.15-.12.17a1.63,1.63,0,0,1-.11.17l-.21.36-.09.19-.08.19c0,.07-.06.13-.08.19a1.72,1.72,0,0,0-.09.19.52.52,0,0,0-.06.16.85.85,0,0,1-.06.17,3.19,3.19,0,0,1-.09.34,2.42,2.42,0,0,0-.06.28.86.86,0,0,0,0,.22.31.31,0,0,0,0,.19v-.06a.32.32,0,0,1,0-.13.25.25,0,0,0,0-.1.36.36,0,0,1,0-.11c0-.05,0-.15.06-.29a.35.35,0,0,0,.06-.14.49.49,0,0,1,0-.18.49.49,0,0,0,.06-.17,1.11,1.11,0,0,1,.07-.16.84.84,0,0,1,.08-.19,1.08,1.08,0,0,0,.08-.19l.1-.17.09-.19a1.14,1.14,0,0,1,.1-.19ZM73.05,22a.37.37,0,0,0-.06.1l0,.09a.15.15,0,0,1,0,.06.15.15,0,0,0,0-.06.24.24,0,0,1,.06-.08l.07-.09.23-.26a3,3,0,0,1,.3-.33c.05-.07.11-.13.16-.19l.19-.19.21-.2.21-.2a1.59,1.59,0,0,1,.24-.2l.25-.2a1.51,1.51,0,0,1,.26-.18,2.26,2.26,0,0,0,.26-.16A3.25,3.25,0,0,1,76,19.7a2.42,2.42,0,0,1,.59-.15h.29a1,1,0,0,1,.28.05h.13l.06,0,.06,0,.07,0,.06,0a.13.13,0,0,0,.1,0A1.73,1.73,0,0,1,78,20a.4.4,0,0,1,.15.1.69.69,0,0,0,.13.11l.07.08a.19.19,0,0,0,.07.06s0,.05.07.05l0-.07a1.15,1.15,0,0,1-.14-.17l-.12-.09a.92.92,0,0,1-.14-.14.54.54,0,0,1-.18-.11,1.33,1.33,0,0,0-.19-.14.3.3,0,0,1-.13,0s0,0-.11-.07l-.14,0-.07,0-.06,0a2.11,2.11,0,0,0-.61,0l-.3,0a1.32,1.32,0,0,0-.33.08,3,3,0,0,0-.59.26A1.58,1.58,0,0,0,75,20l-.28.18-.24.22-.24.21a4,4,0,0,0-.41.42l-.35.4a2.55,2.55,0,0,0-.27.35A3.27,3.27,0,0,1,73.05,22Zm1,2.46a2.68,2.68,0,0,0,1.45-.38,3.28,3.28,0,0,0,1-.93A4.5,4.5,0,0,0,77,22c.14-.42.26-.8.34-1.13h-.25a1.75,1.75,0,0,0-.88.29,4.77,4.77,0,0,0-.94.8,9.26,9.26,0,0,0-.92,1.15,12,12,0,0,0-.78,1.34A1.19,1.19,0,0,0,74,24.5ZM76.84,29l.18-.12.15-.11.13-.1-.13.1-.16.1-.2.11-.24.12a1,1,0,0,1-.28.11l-.16.07-.16.06a.58.58,0,0,1-.15.06l-.18,0-.16.05a.37.37,0,0,0-.16.05,1,1,0,0,1-.17,0l-.17,0-.29.07h-.27l-.24,0-.18,0h.18l.24,0,.27,0,.32,0a.4.4,0,0,1,.15,0l.18,0,.16,0a.49.49,0,0,0,.18-.05.33.33,0,0,1,.16-.05.47.47,0,0,0,.15-.06l.32-.12.28-.15A1,1,0,0,0,76.84,29Zm.21-6.71s0,0,0,0a.14.14,0,0,0,0,.06.11.11,0,0,1,0,.07l-.09.19-.14.25a1.37,1.37,0,0,1-.17.25,2.09,2.09,0,0,1-.21.3l-.12.14-.13.13a.67.67,0,0,0-.15.14.53.53,0,0,1-.14.12l-.15.12a.14.14,0,0,1-.09.05l-.08.06a1.5,1.5,0,0,1-.34.16l-.16.07a.49.49,0,0,0-.17.06,1,1,0,0,1-.32.06l-.25.07h-.21l-.15,0h.63a.57.57,0,0,1,.15,0l.17,0,.17-.06a.52.52,0,0,0,.16-.06l.18-.09.18-.08a.14.14,0,0,1,.09,0l.08-.06.15-.12A.52.52,0,0,0,76,24a.86.86,0,0,1,.14-.13l.13-.15.13-.15a.65.65,0,0,1,.1-.15.76.76,0,0,0,.11-.14l.07-.15s0-.08.07-.13a1.1,1.1,0,0,0,.12-.25,1.07,1.07,0,0,1,.07-.19Z" transform="translate(-1.43 -11.9)"/><path class="cls-1" d="M90.87,23.72s.11,0,.22.06a2.26,2.26,0,0,1,.32.35c.1.15.19.31.28.47a1.09,1.09,0,0,1,.13.42,2,2,0,0,1-.24.72A10.46,10.46,0,0,1,91,26.89c-.26.42-.56.87-.9,1.34A14.09,14.09,0,0,1,89,29.52a7.76,7.76,0,0,1-1.12.95,1.86,1.86,0,0,1-1.06.38,1.06,1.06,0,0,1-.61-.23,3.66,3.66,0,0,1-.64-.55,3,3,0,0,1-.51-.65,1.18,1.18,0,0,1-.2-.57v-.16c-.29.29-.59.57-.89.83a10,10,0,0,1-.89.68,5,5,0,0,1-.82.47,1.69,1.69,0,0,1-.7.18,1.8,1.8,0,0,1-1-.34,5.08,5.08,0,0,1-1-.85,4.63,4.63,0,0,1-.7-1,2.1,2.1,0,0,1-.28-1,4.66,4.66,0,0,1,.41-1.8,10.33,10.33,0,0,1,1.09-1.92,16,16,0,0,1,1.51-1.82,14.93,14.93,0,0,1,1.71-1.53A9.63,9.63,0,0,1,85,19.51a3.27,3.27,0,0,1,1.37-.4,1.47,1.47,0,0,1,1.11.47,3,3,0,0,1,.65,1,2.81,2.81,0,0,1,.21,1c0,.3-.06.46-.19.46a.31.31,0,0,1-.3-.18c-.06-.12-.13-.25-.19-.4a1.31,1.31,0,0,0-.26-.4.71.71,0,0,0-.53-.18,2.62,2.62,0,0,0-1.2.38,9.42,9.42,0,0,0-1.46,1,15.13,15.13,0,0,0-2.85,3.11,10.27,10.27,0,0,0-1,1.72A4,4,0,0,0,80,28.66c0,.38.16.57.49.57a2.07,2.07,0,0,0,1-.32,7.15,7.15,0,0,0,1.1-.84c.37-.35.75-.73,1.13-1.15s.73-.83,1.06-1.23.62-.77.87-1.12l.61-.81c.11-.18.2-.27.25-.27s.16.07.32.22l.47.5a6.48,6.48,0,0,1,.43.56.84.84,0,0,1,.19.38,1.42,1.42,0,0,1-.13.36c-.1.2-.2.43-.32.7s-.25.56-.39.87-.26.58-.36.84-.16.47-.21.64,0,.25.07.25a1.39,1.39,0,0,0,.85-.35,5.57,5.57,0,0,0,.89-.87,9.65,9.65,0,0,0,.85-1.16c.28-.42.53-.82.76-1.19s.43-.71.59-1A3.09,3.09,0,0,1,90.87,23.72ZM79.76,25.15a3.38,3.38,0,0,1,.24-.41l.29-.41.32-.42.33-.42c.11-.14.23-.28.35-.41l.36-.41c.24-.27.49-.52.76-.77s.53-.48.8-.7.25-.23.38-.33a3.08,3.08,0,0,1,.38-.28c.12-.1.25-.19.38-.28l.35-.23a5.57,5.57,0,0,1,.66-.38.31.31,0,0,1,.13-.06.59.59,0,0,0,.14-.06l.25-.09.21-.06a.34.34,0,0,1,.15,0h-.15l-.1,0-.11,0-.12,0-.15,0-.14.07a.31.31,0,0,0-.13.06,2.07,2.07,0,0,0-.34.15,2.9,2.9,0,0,0-.34.19c-.24.14-.49.3-.74.48s-.53.39-.81.61l-.8.69a9.57,9.57,0,0,0-.78.78q-.36.4-.72.84l-.32.43-.31.42a9.72,9.72,0,0,0-.53.84,4.11,4.11,0,0,0-.21.42,1.21,1.21,0,0,1-.09.2,1.24,1.24,0,0,0-.1.2,2.72,2.72,0,0,0-.13.37c0,.12-.07.23-.1.34a1.42,1.42,0,0,0,0,.16l0,.14a.77.77,0,0,0,0,.15.5.5,0,0,1,0,.12.71.71,0,0,0,0,.2v.26a.16.16,0,0,1,0-.1V27.4a.29.29,0,0,0,0-.09.5.5,0,0,1,0-.12.57.57,0,0,1,.06-.25,1.9,1.9,0,0,1,.09-.32,4.19,4.19,0,0,1,.25-.69l.19-.38a1.24,1.24,0,0,1,.1-.2A1.37,1.37,0,0,0,79.76,25.15ZM84.05,29l.19-.15.15-.14.12-.13a.68.68,0,0,1-.12.11l-.16.11L84,29l-.23.2-.27.2-.29.21-.3.21a.91.91,0,0,0-.16.11l-.16.1-.14.09-.15.08-.16.07-.16.08a.34.34,0,0,1-.14,0l-.13,0a.24.24,0,0,1-.13,0,.22.22,0,0,1-.12,0h-.32l.06,0,.07,0h.31a.33.33,0,0,0,.15,0l.14,0a.24.24,0,0,0,.13-.05l.16-.05.16-.08.16-.08.15-.08a.91.91,0,0,0,.16-.11.54.54,0,0,1,.16-.1,2.37,2.37,0,0,0,.3-.23l.29-.22.26-.2A2.09,2.09,0,0,0,84.05,29Zm-1.68-.46-.09.06,0,0,0,0,.09-.06.12-.09.17-.12a1.19,1.19,0,0,0,.18-.15A1.75,1.75,0,0,0,83,28a1.8,1.8,0,0,0,.21-.19l.21-.21.2-.21a1.68,1.68,0,0,0,.18-.21A1.62,1.62,0,0,0,84,27l.16-.18.11-.16.1-.13a1,1,0,0,1,.08-.11l-.1.11-.11.1-.12.15L84,27l-.18.2-.2.21-.2.21L83,28l-.19.19a1.14,1.14,0,0,1-.17.15,1.29,1.29,0,0,0-.17.15ZM85,20.19l.15-.09.1-.08L85.4,20s0,0,0,0h-.09a.52.52,0,0,1-.11.07l-.18.07-.18.1a1.05,1.05,0,0,0-.2.14l-.22.12a1.07,1.07,0,0,0-.22.15l-.2.16-.2.15-.19.16-.15.14a1.84,1.84,0,0,1-.14.14l-.09.09-.08.08.08-.08.25-.19.36-.27.42-.32.21-.15.21-.14.19-.13A.69.69,0,0,1,85,20.19Z" transform="translate(-1.43 -11.9)"/><path class="cls-1" d="M100.78,23.7c.1-.2.23-.27.4-.22a1,1,0,0,1,.48.34,1.87,1.87,0,0,1,.36.59.7.7,0,0,1,0,.57,15.2,15.2,0,0,1-1.18,1.88,11.17,11.17,0,0,1-1.77,1.89,9.54,9.54,0,0,1-2.36,1.48,7.41,7.41,0,0,1-3,.62H93.6a2.34,2.34,0,0,1-.92-.21,2.91,2.91,0,0,1-.75-.48,3.32,3.32,0,0,1-.57-.67,6.33,6.33,0,0,1-.41-.76q-.6,1.62-1.2,3.21c-.39,1.06-.74,2-1,2.87S88.14,36.38,88,37A5.2,5.2,0,0,0,87.67,38c0,.09-.1.11-.32.05a3.22,3.22,0,0,1-.68-.3,3.93,3.93,0,0,1-.68-.47c-.21-.18-.32-.34-.32-.46A5.52,5.52,0,0,1,86,36c.19-.51.45-1.17.76-2s.68-1.73,1.09-2.74.82-2.05,1.25-3.11S89.91,26,90.32,25s.77-2,1.08-2.79.58-1.51.77-2.07a4.75,4.75,0,0,0,.3-1c0-.33.08-.5.24-.49a.93.93,0,0,1,.53.27,3.8,3.8,0,0,1,.52.64,1.32,1.32,0,0,1,.24.63,3,3,0,0,1-.11.52c-.08.27-.2.62-.35,1a19.17,19.17,0,0,1,1.67-1.86,2.19,2.19,0,0,1,1.34-.75,1.06,1.06,0,0,1,.57.2,2,2,0,0,1,.53.64,4.42,4.42,0,0,1,.4,1.17,8.13,8.13,0,0,1,.16,1.76,7.65,7.65,0,0,1-.1,1.2,12.09,12.09,0,0,1-.3,1.34c-.13.47-.28.93-.45,1.39a12.45,12.45,0,0,1-.6,1.33,8,8,0,0,0,1.39-1A9.41,9.41,0,0,0,99.28,26a11,11,0,0,0,.88-1.19C100.4,24.43,100.61,24.05,100.78,23.7ZM86.81,35c.07-.2.14-.4.22-.59s.14-.38.2-.53a4.29,4.29,0,0,1,.19-.5l-.07.12-.08.17-.08.21-.11.23a1.33,1.33,0,0,0-.1.28c0,.09-.09.19-.13.28l-.13.3a1.25,1.25,0,0,1-.1.31c0,.09-.08.19-.11.28a4.14,4.14,0,0,1-.19.53,1.55,1.55,0,0,0-.12.38.83.83,0,0,0,0,.15l.06-.13a.59.59,0,0,0,.07-.16l.08-.22a1.46,1.46,0,0,1,.1-.23c0-.09.08-.18.11-.27s.08-.2.11-.3Zm4.94-13.07a2.5,2.5,0,0,1,.08-.25.84.84,0,0,1,.07-.19A.77.77,0,0,0,92,21.3h0a4.73,4.73,0,0,1-.21.59c-.07.2-.16.42-.26.66s-.22.53-.33.85c-.25.64-.54,1.35-.86,2.15s-.65,1.62-1,2.46l-1.85,4.63c-.29.74-.58,1.44-.84,2.08l0,0a.47.47,0,0,1,.06-.15l.09-.18c0-.06.06-.15.1-.24a6.8,6.8,0,0,1,.29-.67,9.08,9.08,0,0,0,.36-.85l.45-1c.15-.35.3-.73.46-1.12s.32-.8.49-1.21.35-.83.52-1.25.31-.84.47-1.26l.48-1.21c.15-.4.3-.78.44-1.14s.26-.7.38-1c0-.17.1-.33.15-.47s.1-.28.14-.42a3.19,3.19,0,0,0,.14-.35C91.69,22.09,91.72,22,91.75,21.89ZM91.86,27c0,.24,0,.51-.07.8a3.71,3.71,0,0,0,0,.83,1.52,1.52,0,0,0,.24.65.58.58,0,0,0,.51.27,2,2,0,0,0,1.29-.46A4.86,4.86,0,0,0,95,27.9a9.1,9.1,0,0,0,.84-1.65,16.24,16.24,0,0,0,.6-1.87,15.73,15.73,0,0,0,.37-1.81,11.54,11.54,0,0,0,.13-1.52,3.3,3.3,0,0,0-1.16.84,18.66,18.66,0,0,0-1.56,1.78C93.54,24.46,92.77,25.57,91.86,27Zm1-4a2.43,2.43,0,0,0-.15.26l-.11.2a.6.6,0,0,0-.08.19.05.05,0,0,1,0,0l.09-.13a1,1,0,0,1,.11-.2l.16-.26.21-.3.23-.31a3.64,3.64,0,0,1,.24-.35c.09-.12.19-.24.29-.35s.35-.45.54-.67a7.31,7.31,0,0,1,.51-.57l.2-.22.16-.16,0-.07,0-.05,0-.05,0,.05-.1.1-.17.16a2.23,2.23,0,0,0-.21.22,2.84,2.84,0,0,0-.26.24l-.27.31-.28.33c-.09.12-.19.23-.29.34l-.26.35c-.09.12-.17.23-.24.34a2.7,2.7,0,0,0-.22.33Zm2.31-1.73-.34.34a2.4,2.4,0,0,0-.21.23,3.17,3.17,0,0,0-.21.27l-.24.3c-.08.09-.16.2-.24.31a3.62,3.62,0,0,1-.22.32l-.22.29-.2.31a2.5,2.5,0,0,1-.18.24,2.22,2.22,0,0,0-.15.23l-.1.19a.49.49,0,0,0-.09.15l.11-.15.1-.16.17-.22.19-.26.21-.29.22-.29a2.57,2.57,0,0,0,.22-.32l.25-.31.22-.3c.07-.09.14-.19.21-.27l.21-.23a1.57,1.57,0,0,0,.17-.21.83.83,0,0,1,.12-.17.53.53,0,0,1,.13-.13Zm.15,7,0,0,0,0,0,0-.35.36-.17.19-.19.19a1.32,1.32,0,0,0-.23.21l-.24.19a1.55,1.55,0,0,0-.25.16l-.12.08-.13.07-.23.13-.13,0-.1,0-.36.13-.11,0,0,0h0l.11,0,.18,0,.2-.07.1,0a.21.21,0,0,0,.13,0,.94.94,0,0,0,.25-.11,1.3,1.3,0,0,0,.25-.14,1.6,1.6,0,0,0,.28-.17,5.62,5.62,0,0,0,.44-.41l.36-.39.13-.17A.64.64,0,0,0,95.33,28.26Zm1.18-2.88c0-.11,0-.22.08-.33l.09-.34.06-.33a2,2,0,0,1,.06-.32c0-.1,0-.2,0-.29s0-.18,0-.28,0-.34.06-.48,0-.27,0-.38a.53.53,0,0,1,0-.14.38.38,0,0,0,0-.1v-.08l-.06.32c0,.11-.06.23-.09.38s0,.29-.08.46,0,.19,0,.28l-.06.29c0,.11-.06.21-.08.31s0,.21-.07.32a3,3,0,0,1-.1.32l-.09.33c0,.11-.06.22-.1.34a2.26,2.26,0,0,1-.13.33c0,.07,0,.13,0,.18a.64.64,0,0,1-.06.16,1.22,1.22,0,0,0-.07.17l-.08.17-.07.15a1.11,1.11,0,0,1-.07.16.64.64,0,0,0-.08.14l-.07.16a1.4,1.4,0,0,0-.17.28,1.06,1.06,0,0,1-.17.26.57.57,0,0,1-.08.13.57.57,0,0,0-.08.13.45.45,0,0,0-.09.1l-.08.11-.16.19-.16.16a.81.81,0,0,1-.13.15.79.79,0,0,0-.14.13l-.23.23.06-.06.09-.08.12-.07.13-.11.07-.06.07-.06.17-.17.19-.19a.53.53,0,0,0,.09-.11.32.32,0,0,1,.1-.1l.08-.13.09-.12a2.38,2.38,0,0,0,.36-.55l.08-.14a.8.8,0,0,0,.08-.16,1.09,1.09,0,0,0,.08-.15l.07-.16a1.2,1.2,0,0,0,.15-.34.52.52,0,0,0,.06-.16l.07-.17c0-.12.08-.23.11-.34S96.46,25.49,96.51,25.38Zm-.57-5.11-.14.09-.13.1-.16.13-.14.12-.13.14-.12.14-.12.14-.09.13a.91.91,0,0,0-.13.19l0,.08.06-.06.08-.08.07-.11.22-.24.26-.27a1.07,1.07,0,0,1,.28-.25l.12-.12.07,0,.06,0a.78.78,0,0,0,.19-.12h0l0,0s0,0,0,0l-.08.05A.71.71,0,0,0,95.94,20.27Z" transform="translate(-1.43 -11.9)"/><path class="cls-1" d="M105.93,23.64c0-.07.13-.09.25-.06a1,1,0,0,1,.39.24,1.51,1.51,0,0,1,.37.47,1.29,1.29,0,0,1,.17.63,2.26,2.26,0,0,1-.22.76,11.34,11.34,0,0,1-.61,1.19,15.56,15.56,0,0,1-.92,1.36,10.1,10.1,0,0,1-1.14,1.29,7.06,7.06,0,0,1-1.3.95,2.63,2.63,0,0,1-1.34.38,1.53,1.53,0,0,1-.6-.17,3.91,3.91,0,0,1-1.46-1.12,1.24,1.24,0,0,1-.3-.79,5.47,5.47,0,0,1,.23-1.3q.24-.86.6-1.83c.25-.66.51-1.34.79-2s.54-1.32.79-1.88.46-1,.64-1.4.29-.57.32-.62.2-.09.37,0a2,2,0,0,1,.47.43,4,4,0,0,1,.4.61,1.34,1.34,0,0,1,.17.56,3.48,3.48,0,0,1-.25.69c-.16.4-.36.87-.59,1.43s-.5,1.14-.76,1.77-.51,1.22-.72,1.75-.37,1-.47,1.33-.11.52,0,.52a2.37,2.37,0,0,0,1.53-.56,7.06,7.06,0,0,0,1.32-1.35,13.58,13.58,0,0,0,1.08-1.7C105.46,24.61,105.72,24.09,105.93,23.64Zm-6.31,4.2c0-.09.07-.21.13-.35l.14-.4.19-.53c0-.1.07-.2.11-.3a2.07,2.07,0,0,0,.1-.33,3.42,3.42,0,0,0,.13-.34,2.41,2.41,0,0,1,.15-.33c.08-.24.17-.49.27-.74s.2-.5.32-.76.19-.5.29-.75.2-.5.3-.74l.11-.25c0-.06,0-.11,0-.15s0-.09,0-.14a1.59,1.59,0,0,1,.08-.22l.21-.52.15-.4a.77.77,0,0,0,.06-.15s0-.08,0-.11l0-.1h0l-.16.33c-.06.12-.12.25-.18.4l-.22.51c-.17.38-.32.72-.46,1s-.29.7-.49,1.21-.4,1-.58,1.49-.33.94-.45,1.35l-.16.54c0,.16-.09.29-.12.41a.73.73,0,0,0,0,.16.18.18,0,0,1,0,.11S99.62,27.83,99.62,27.84Zm1-2c0-.1,0-.19.07-.26a1.8,1.8,0,0,1,.08-.21.53.53,0,0,0,.06-.19.49.49,0,0,1-.06.17l-.1.2-.09.26c-.09.2-.17.41-.26.64l-.25.75-.12.38a2.72,2.72,0,0,0-.11.38c0,.11,0,.22-.08.34s0,.22-.07.33a1.47,1.47,0,0,0,0,.27v.22a.19.19,0,0,0,0,.12s0,0,0,.05,0,0,0-.05a.22.22,0,0,1,0-.12,2,2,0,0,1,.07-.49c0-.09,0-.2.08-.31s.06-.23.08-.34l.26-.76c0-.12.06-.25.1-.37s.09-.25.13-.36.08-.24.12-.35A2.22,2.22,0,0,0,100.61,25.85Zm3.83-7a.42.42,0,0,1-.26-.15,2.78,2.78,0,0,1-.32-.35,1.77,1.77,0,0,1-.26-.41,1.29,1.29,0,0,1-.13-.31,2.49,2.49,0,0,1,.15-.58,9.7,9.7,0,0,1,.37-.95,7.38,7.38,0,0,1,.46-.89c.16-.27.29-.4.39-.4a.69.69,0,0,1,.41.23,4.54,4.54,0,0,1,.45.52c.14.19.26.37.37.54a1.22,1.22,0,0,1,.16.35,1.59,1.59,0,0,1-.23.46c-.16.26-.34.53-.55.81s-.42.55-.61.78S104.51,18.84,104.44,18.84Zm-.13,9.07.14-.15.16-.19.14-.21.15-.21a1.37,1.37,0,0,0,.15-.21,2.39,2.39,0,0,1,.13-.21l.12-.21.11-.19c0-.06,0-.11.07-.17a.76.76,0,0,1,.07-.13l0-.1-.07.1a.62.62,0,0,0-.08.12l-.09.16c-.08.11-.16.24-.25.38l-.12.21-.15.21a1.37,1.37,0,0,0-.15.21,1.37,1.37,0,0,1-.15.21,1.27,1.27,0,0,1-.13.19,1.15,1.15,0,0,0-.14.17l-.19.25-.08.08.08-.08A.83.83,0,0,0,104.31,27.91ZM106,25.64a2,2,0,0,1,.07-.19.52.52,0,0,1,.07-.15l.07-.13-.07.13-.09.14a.55.55,0,0,0-.1.17.76.76,0,0,1-.11.22,2,2,0,0,0-.14.25l-.14.25c0,.08-.1.17-.15.27l-.32.51a1.76,1.76,0,0,1-.14.23,2.39,2.39,0,0,0-.13.21,1.4,1.4,0,0,1-.12.18.59.59,0,0,1-.09.11l-.07.09,0,0,0,0s0,0,0,0l0,0a.64.64,0,0,1,.1-.13.59.59,0,0,0,.13-.17l.14-.21.15-.21.32-.51c.06-.09.11-.18.16-.27s.09-.17.13-.25l.13-.25Z" transform="translate(-1.43 -11.9)"/><path class="cls-1" d="M114.9,23.72c0-.06.11,0,.22.05a1.92,1.92,0,0,1,.31.36,4.57,4.57,0,0,1,.29.47,1,1,0,0,1,.12.42,1.71,1.71,0,0,1-.33.7,12.78,12.78,0,0,1-.91,1.16,15.37,15.37,0,0,1-1.34,1.34,13,13,0,0,1-1.65,1.28,10.94,10.94,0,0,1-1.81,1,4.8,4.8,0,0,1-1.83.38,2.08,2.08,0,0,1-1.17-.38,4.61,4.61,0,0,1-1.06-.91,5.1,5.1,0,0,1-.75-1.14,2.38,2.38,0,0,1-.3-1,5.19,5.19,0,0,1,.31-1.69,11.18,11.18,0,0,1,.8-1.83,13.91,13.91,0,0,1,1.13-1.77,13.33,13.33,0,0,1,1.32-1.51,7.56,7.56,0,0,1,1.32-1.07,2.4,2.4,0,0,1,1.18-.4,1.56,1.56,0,0,1,.89.28,2.92,2.92,0,0,1,.76.69,3.44,3.44,0,0,1,.52.94,3,3,0,0,1,.19,1,3.36,3.36,0,0,1-.19,1,5.78,5.78,0,0,1-.47,1,5.68,5.68,0,0,1-.54.81c-.18.22-.33.32-.44.32a.6.6,0,0,1-.26-.08l.15-.13.13-.15.12-.14a.86.86,0,0,1,.1-.16l.09-.14.07-.11a.21.21,0,0,1,.06-.1l0-.08a0,0,0,0,0,0,0l0,0,0,0-.07.09-.08.1a1.45,1.45,0,0,1-.21.26.86.86,0,0,1-.13.14l-.12.15-.08.07-.07.08a1.49,1.49,0,0,1-.44-.46,1,1,0,0,1-.19-.47,1.1,1.1,0,0,1,.22-.49c.15-.23.31-.5.47-.79s.33-.6.48-.91a2,2,0,0,0,.22-.84c0-.05,0-.13,0-.24s-.12-.16-.32-.16a1.91,1.91,0,0,0-1,.36,6.17,6.17,0,0,0-1.11.94,10.86,10.86,0,0,0-1.09,1.35,12.46,12.46,0,0,0-.93,1.57,10.29,10.29,0,0,0-.67,1.64,5.41,5.41,0,0,0-.25,1.51,1.86,1.86,0,0,0,.2.89c.13.25.43.37.87.37a3.69,3.69,0,0,0,1.6-.39,9.3,9.3,0,0,0,1.6-1,13.81,13.81,0,0,0,1.48-1.29c.46-.47.87-.91,1.24-1.33s.67-.77.91-1.08A6.89,6.89,0,0,1,114.9,23.72Zm-8.67,1.6.12-.32a1.92,1.92,0,0,0,.11-.27l.09-.23.1-.19a.58.58,0,0,0,.06-.17.05.05,0,0,1,0,0l0,.06,0,.07a1.94,1.94,0,0,0-.1.17l-.11.23a1.69,1.69,0,0,0-.13.27,3,3,0,0,1-.15.32c-.08.22-.16.45-.23.69a1,1,0,0,0-.06.19,1.06,1.06,0,0,0,0,.19,1,1,0,0,0,0,.17.68.68,0,0,1,0,.19,2.75,2.75,0,0,0,0,.34v.31a3,3,0,0,0,0,.44s0,.06,0,.08a.11.11,0,0,1,0,.05.05.05,0,0,0,0,0,.05.05,0,0,1,0,0v-.13a3.48,3.48,0,0,1,0-.44c0-.19,0-.41.08-.65A4.61,4.61,0,0,1,106,26a2.79,2.79,0,0,1,.12-.34Zm.08-1.66s0,0,0,0,.1-.16.16-.26l.19-.3a.88.88,0,0,1,.14-.2l.12-.2a1.25,1.25,0,0,0,.11-.18c.07-.1.13-.2.19-.3a.15.15,0,0,0,.06-.09l0-.09,0-.07,0,.07,0,.08-.07.08c-.07.09-.15.18-.22.29s-.16.23-.25.37l-.14.21c0,.07-.09.14-.15.21Zm6.44,2.84.07-.09.06-.08a.09.09,0,0,1,0-.06l-.19.19a2.44,2.44,0,0,0-.22.23c-.08.08-.17.17-.29.27l-.35.34-.4.33a1.74,1.74,0,0,1-.22.18L111,28l-.22.17-.24.17a2.83,2.83,0,0,1-.48.31l-.26.16a2,2,0,0,1-.25.14,3.48,3.48,0,0,1-.48.21.22.22,0,0,1-.11.05.23.23,0,0,0-.1.05l-.12,0-.11,0a2.17,2.17,0,0,1-.38.1.45.45,0,0,1-.18,0,.32.32,0,0,0-.14,0l-.11,0h.26l.17,0,.2,0a.53.53,0,0,0,.2-.05.56.56,0,0,0,.23-.06l.23-.07.13-.05a.21.21,0,0,0,.12,0,.94.94,0,0,0,.25-.11l.26-.12a1.65,1.65,0,0,0,.25-.15,4.75,4.75,0,0,0,.5-.31,6.87,6.87,0,0,0,.93-.74l.39-.37.35-.35.27-.29ZM112.2,24l-.12.22a2.36,2.36,0,0,1-.13.2l-.21.32-.08.11a.33.33,0,0,1,.08-.11l.1-.1a.76.76,0,0,0,.13-.17q.16-.21.3-.42l.15-.26a1.71,1.71,0,0,0,.14-.27l.11-.27c0-.1.07-.19.1-.28l0-.13,0-.14a.56.56,0,0,0,0-.12s0-.07,0-.11a1.25,1.25,0,0,0,0-.21V22.1a.3.3,0,0,0,0,.15.16.16,0,0,0,0,.09.25.25,0,0,1,0,.12.2.2,0,0,1,0,.1c0,.05,0,.09,0,.13l-.06.25a.38.38,0,0,0-.06.13.37.37,0,0,1-.05.15l-.12.25A2.76,2.76,0,0,1,112.2,24Z" transform="translate(-1.43 -11.9)"/><path class="cls-1" d="M121.75,23.7a.24.24,0,0,1,.35-.11,1.38,1.38,0,0,1,.47.36,2,2,0,0,1,.38.55.51.51,0,0,1,.07.44c-.3.56-.65,1.19-1,1.87a13.87,13.87,0,0,1-1.35,1.93,8.18,8.18,0,0,1-1.63,1.5,3.29,3.29,0,0,1-1.92.61,2.59,2.59,0,0,1-.88-.19,3.08,3.08,0,0,1-1-.63,3.5,3.5,0,0,1-.86-1.14,3.8,3.8,0,0,1-.36-1.74,6.07,6.07,0,0,1,.26-1.36c.18-.62.4-1.33.69-2.13s.59-1.65.93-2.55l1-2.61a7.63,7.63,0,0,1-.82,0h-.76a1,1,0,0,1-.8-.3,1.43,1.43,0,0,1-.31-.66,1.67,1.67,0,0,1,0-.67c0-.2.12-.3.2-.3h1.5l1,0,.8,0,1.24-3.05a6.19,6.19,0,0,0,.44-1.27c0-.24.1-.34.28-.32a1.24,1.24,0,0,1,.6.28,3.86,3.86,0,0,1,.6.61,1.14,1.14,0,0,1,.27.67,4.33,4.33,0,0,1-.29.78c-.2.45-.5,1.17-.91,2.15l1.84-.09,1.21,0a1.46,1.46,0,0,1,.67.12.85.85,0,0,1,.32.3,1.07,1.07,0,0,1,.12.45c0,.16,0,.33,0,.5a.32.32,0,0,1-.2.34,1.8,1.8,0,0,1-.5.06c-.67,0-1.37,0-2.09.09l-2.16.18c-.36.9-.74,1.87-1.14,2.9s-.77,2-1.1,3-.6,1.86-.81,2.69a8.5,8.5,0,0,0-.31,2c0,.33.09.5.27.5a2.89,2.89,0,0,0,1.7-.6,8.78,8.78,0,0,0,1.6-1.47,15,15,0,0,0,1.39-1.86C121.12,24.83,121.47,24.23,121.75,23.7Zm-6.9,5.7a.64.64,0,0,0,.13.17l.06.06a.15.15,0,0,1,0-.06l0-.1-.08-.11a.63.63,0,0,1-.07-.12.54.54,0,0,0-.07-.13l-.09-.16a1.59,1.59,0,0,1-.08-.18l-.07-.16c0-.05,0-.1-.08-.16a1,1,0,0,1-.12-.29l-.05-.12a.29.29,0,0,1,0-.09.11.11,0,0,1,0-.06V28a.28.28,0,0,0,0,.09s0,.08,0,.14a.32.32,0,0,1,0,.14.64.64,0,0,0,.06.16,1.11,1.11,0,0,1,.07.16c0,.06,0,.12.07.17l.18.33A2,2,0,0,0,114.85,29.4Zm.53-6.56c-.08.25-.16.47-.23.67s-.13.37-.17.53l-.13.44a.28.28,0,0,0,.05-.11l0-.13A1.59,1.59,0,0,1,115,24c.06-.14.12-.31.19-.51s.16-.41.25-.65l.36-.87c.14-.35.29-.71.43-1.09l.45-1.13c.16-.38.3-.73.43-1.06a.56.56,0,0,1,0-.12l0-.13a.35.35,0,0,1-.17,0l0,.09,0,.08c-.07.17-.15.37-.23.59s-.18.45-.28.68-.19.46-.27.68l-.21.55-.32.89C115.58,22.34,115.48,22.6,115.38,22.84Zm.08.65a.61.61,0,0,0,.07-.14.94.94,0,0,1,.06-.18c.06-.12.12-.27.19-.44s.06-.15.09-.24l.12-.26.09-.27.1-.24c0-.08,0-.16.08-.24l.09-.22.14-.44-.21.42c0,.07,0,.14-.08.22s-.06.15-.08.22a2.72,2.72,0,0,1-.11.25,1.33,1.33,0,0,0-.1.28l-.19.5-.09.23-.08.21c0,.07,0,.14-.07.19a.54.54,0,0,1,0,.15.68.68,0,0,1,0,.13Zm2.7-7.72-.1.23a.5.5,0,0,0,0,.13s0,.09-.05.14-.06.15-.12.28H118l.09-.28a.46.46,0,0,0,0-.13.56.56,0,0,1,0-.12s0-.11.08-.21.18-.46.25-.66a4,4,0,0,1,.21-.52l.07-.18a.5.5,0,0,1,0-.13.68.68,0,0,1,0-.13,1,1,0,0,0,0,.1.74.74,0,0,0-.08.13c0,.06,0,.12-.07.19l-.22.52C118.36,15.32,118.27,15.53,118.16,15.77Z" transform="translate(-1.43 -11.9)"/><path class="cls-1" d="M132.06,23.7c.06-.1.16-.11.31,0a1.55,1.55,0,0,1,.43.36,2.15,2.15,0,0,1,.35.5.44.44,0,0,1,0,.42A21.06,21.06,0,0,1,132,26.78a19.93,19.93,0,0,1-1.62,1.93,10.84,10.84,0,0,1-1.8,1.52,3.13,3.13,0,0,1-1.75.62,1.28,1.28,0,0,1-.69-.19,1.87,1.87,0,0,1-.54-.47,2.21,2.21,0,0,1-.33-.6,1.31,1.31,0,0,1-.1-.55,5.79,5.79,0,0,1,.17-.68c.1-.33.23-.73.4-1.19-.36.51-.73,1-1.09,1.42a14,14,0,0,1-1.09,1.17,5.85,5.85,0,0,1-1,.8,2,2,0,0,1-1,.29,1.42,1.42,0,0,1-.56-.15,2.55,2.55,0,0,1-.62-.46,2.46,2.46,0,0,1-.48-.71,1.91,1.91,0,0,1-.15-1,4.76,4.76,0,0,1,.33-1.14c.2-.52.45-1.1.74-1.74s.59-1.32.92-2l.92-2c.28-.6.51-1.12.7-1.56a4.43,4.43,0,0,0,.31-.84c0-.11.06-.17.13-.17a.53.53,0,0,1,.28.13,2.71,2.71,0,0,1,.34.34,3.37,3.37,0,0,1,.34.43,3.14,3.14,0,0,1,.24.42.69.69,0,0,1,.1.3,2.58,2.58,0,0,1-.28.66l-.66,1.34-.84,1.73c-.3.62-.58,1.2-.84,1.77s-.48,1.05-.67,1.49a3.63,3.63,0,0,0-.29.88,2,2,0,0,0,1.26-.7,16,16,0,0,0,1.55-1.76c.54-.7,1.08-1.46,1.62-2.29s1-1.59,1.47-2.3.82-1.28,1.12-1.75.48-.71.55-.71a.57.57,0,0,1,.46.21,1.88,1.88,0,0,1,.29.5,2.36,2.36,0,0,1,.16.56,2.61,2.61,0,0,1,0,.42c0,.07-.1.3-.25.7l-.57,1.44-.71,1.81c-.26.65-.49,1.24-.7,1.79s-.37,1-.49,1.36-.15.53-.1.53a2.19,2.19,0,0,0,1.11-.36,7.11,7.11,0,0,0,1.23-1,14.6,14.6,0,0,0,1.28-1.51A20,20,0,0,0,132.06,23.7Zm-11.55,3.37c0-.07.06-.15.1-.23l.11-.22.11-.26.12-.28a1.51,1.51,0,0,0,.15-.28c0-.09.09-.2.15-.31s.19-.41.28-.62.2-.43.31-.64.22-.45.31-.67l.3-.62c.1-.21.18-.41.26-.6l.22-.53.2-.45c.06-.14.11-.26.14-.35a.43.43,0,0,0,0-.13l0-.11a.56.56,0,0,1,0-.08c0,.08-.09.18-.14.3a2.63,2.63,0,0,0-.18.34c-.06.14-.14.28-.22.43s-.15.35-.24.54l-.29.58a6,6,0,0,0-.31.62c-.1.22-.21.43-.32.64l-.29.66-.3.65-.24.58-.22.55c-.13.34-.23.61-.3.82a.51.51,0,0,0,0,.14.13.13,0,0,1,0,.09.81.81,0,0,0,0,.09.29.29,0,0,1,0-.09.2.2,0,0,0,0-.08l.07-.13a1,1,0,0,1,0-.16C120.46,27.2,120.48,27.14,120.51,27.07Zm3.75,1.51,0-.06,0,0,0-.05-.12.13a.83.83,0,0,0-.17.16l-.21.2-.11.1-.12.11-.14.12-.14.13-.31.25-.32.26a.52.52,0,0,0-.18.1l-.15.11-.1,0a.16.16,0,0,0-.09.05l-.17.06a.14.14,0,0,1-.09,0,.13.13,0,0,0-.08,0l-.17.06h-.48l-.07,0-.06,0-.1,0a.14.14,0,0,1-.09,0l-.06,0-.06,0-.05,0,.05,0,.06,0,.06.05.09,0,.1.06.13,0a.32.32,0,0,0,.14,0h.26s.07,0,.08,0a.58.58,0,0,0,.19,0,.54.54,0,0,0,.17,0,.67.67,0,0,1,.19-.09l.08-.05a.2.2,0,0,0,.09-.05.72.72,0,0,0,.19-.11l.16-.1.17-.13.17-.12a.86.86,0,0,1,.14-.13l.16-.13.5-.5.19-.2Zm-1.12-.23a.68.68,0,0,0-.12.11l-.09.1a.21.21,0,0,1-.08.06l0,0s0,0,.06,0a.39.39,0,0,1,.1-.08l.11-.11.16-.13.16-.14.16-.16.15-.18a4.53,4.53,0,0,0,.57-.67.64.64,0,0,1,.1-.13.45.45,0,0,1,.09-.1.64.64,0,0,0,.06-.11l-.06.08-.09.11a.64.64,0,0,0-.1.13l-.27.31-.32.36A7,7,0,0,1,123.14,28.35Zm3.28-3.07a.24.24,0,0,0,.06-.09.16.16,0,0,1,0-.08.15.15,0,0,1,0-.06.15.15,0,0,0,0,.06l0,.07-.07.08-.15.24c-.07.09-.13.19-.2.3l-.51.76c-.1.16-.2.3-.3.43l-.33.43a5.36,5.36,0,0,1-.33.43,4.16,4.16,0,0,1-.32.39l-.32.38c0,.06-.11.11-.16.16a1,1,0,0,0-.13.16l-.47.46a.16.16,0,0,1-.08.06s0,0-.06.05-.05,0-.05,0,0,0,.05,0,0,0,.06-.05a.16.16,0,0,0,.08-.06,1,1,0,0,0,.21-.19,1.41,1.41,0,0,0,.28-.25,1.79,1.79,0,0,0,.32-.3l.33-.35.33-.41.32-.43a9.36,9.36,0,0,0,.63-.87,4.81,4.81,0,0,0,.27-.41c.07-.13.15-.25.22-.37l.19-.3Zm1.94-1.71a2.9,2.9,0,0,0-.13.34.54.54,0,0,1,0,.15l.06-.13a.48.48,0,0,0,.08-.16c0-.06,0-.13.07-.2l.11-.22a1.73,1.73,0,0,0,.1-.24,2.33,2.33,0,0,1,.11-.28l.12-.29a2.33,2.33,0,0,1,.11-.28,1.72,1.72,0,0,0,.1-.26,4.23,4.23,0,0,1,.19-.51c0-.07,0-.13.07-.19a.66.66,0,0,1,0-.15.83.83,0,0,1,0-.12l-.06.12-.08.15c0,.06,0,.12-.07.19l-.09.22a2.44,2.44,0,0,0-.1.24c0,.1-.08.2-.11.29l-.12.28a1.72,1.72,0,0,1-.11.29,2.77,2.77,0,0,0-.1.26C128.48,23.26,128.42,23.43,128.36,23.57Z" transform="translate(-1.43 -11.9)"/><path class="cls-1" d="M139.89,23.85a.38.38,0,0,1,.4-.18,1.14,1.14,0,0,1,.53.21,1.57,1.57,0,0,1,.41.44.52.52,0,0,1,.05.49,7.88,7.88,0,0,1-.42.76c-.21.35-.48.75-.79,1.2s-.67.92-1,1.4a17.26,17.26,0,0,1-1.19,1.32,9,9,0,0,1-1.2,1,2,2,0,0,1-1.1.39,1.57,1.57,0,0,1-.45-.14,2.4,2.4,0,0,1-.66-.46,2.92,2.92,0,0,1-.59-.74,2.1,2.1,0,0,1-.25-1.06,5,5,0,0,1,.33-1.7c.23-.6.48-1.19.75-1.76l.75-1.55a2.83,2.83,0,0,0,.33-1.09c0-.05-.1-.14-.32-.26a4.64,4.64,0,0,0-.62-.28L134,23.47c-.31.62-.59,1.17-.85,1.66-.09.2-.22.26-.37.19a1.17,1.17,0,0,1-.45-.37,1.91,1.91,0,0,1-.32-.6.62.62,0,0,1,0-.52c.19-.43.4-.87.62-1.35s.43-.93.64-1.35a4.89,4.89,0,0,1-.69-.42,2.37,2.37,0,0,1-.59-.55,2.54,2.54,0,0,1-.41-.72,2.5,2.5,0,0,1-.16-.94,4.28,4.28,0,0,1,.24-1.35,9.47,9.47,0,0,1,.62-1.44,12.59,12.59,0,0,1,.85-1.34c.32-.43.63-.8.93-1.13a7.19,7.19,0,0,1,.84-.78,1.22,1.22,0,0,1,.62-.29,1.43,1.43,0,0,1,.64.21,4.09,4.09,0,0,1,.76.54,3,3,0,0,1,.63.74,1.57,1.57,0,0,1,.26.87,3.53,3.53,0,0,1-.2,1q-.19.64-.54,1.53c-.23.59-.51,1.23-.82,1.93s-.67,1.41-1,2.15l.76.35a5,5,0,0,1,.76.44,2.65,2.65,0,0,1,.57.53,1,1,0,0,1,.22.6,2.43,2.43,0,0,1-.21.74c-.14.36-.31.77-.49,1.21s-.4.92-.61,1.41-.41.94-.56,1.35a7.6,7.6,0,0,0-.33,1c-.06.26,0,.39.1.39a1.43,1.43,0,0,0,.81-.34,6,6,0,0,0,.92-.86,11.38,11.38,0,0,0,.93-1.17c.3-.43.58-.84.83-1.23s.47-.74.65-1.05Zm-7.13-8.36a2.12,2.12,0,0,0,.11-.21l.12-.21.25-.38a.76.76,0,0,1,.11-.16l.1-.17c.07-.11.13-.21.19-.29a1.43,1.43,0,0,0,.15-.22l.12-.19,0,.05,0,0-.06.07a1,1,0,0,1-.17.21,1.36,1.36,0,0,0-.21.28l-.13.14-.12.17-.26.38-.14.2a1.37,1.37,0,0,0-.13.2l-.25.44a2.26,2.26,0,0,1-.11.22l-.12.22a2.14,2.14,0,0,1-.1.22l-.09.23-.09.22c0,.07,0,.15-.08.22a2.11,2.11,0,0,0-.11.38,1.8,1.8,0,0,0,0,.19l0,.14a1.91,1.91,0,0,0,0,.28.08.08,0,0,0,0,.08.19.19,0,0,1,0,.08v.05s0,0,0,0v-.07a.88.88,0,0,1,0-.16c0-.06,0-.14.06-.26a2.44,2.44,0,0,1,.11-.31c0-.07.05-.14.07-.19s.05-.12.07-.19L132,17a1.8,1.8,0,0,0,.08-.21l.21-.42.23-.44Zm-.63,4.59s0,0,0,0l-.05-.08-.07-.11-.07-.15a1.29,1.29,0,0,1-.15-.4.23.23,0,0,1,0-.11.5.5,0,0,0,0-.12s0-.08,0-.12a.62.62,0,0,1,0-.13v-.23a1.47,1.47,0,0,0,0-.25l0-.21,0-.22a.3.3,0,0,0,.05-.15l0-.14s0,0,0,0a.08.08,0,0,0,0,0v0s0,0,0,0a.08.08,0,0,1,0,0s0,0,0,0a.83.83,0,0,0,0,.12.88.88,0,0,1-.06.17.16.16,0,0,0,0,.1.24.24,0,0,1,0,.09.79.79,0,0,0-.05.24,1,1,0,0,0,0,.23,1.38,1.38,0,0,0,0,.25,1.76,1.76,0,0,0,0,.25,1.08,1.08,0,0,0,.05.25,1.19,1.19,0,0,0,.08.2,1.67,1.67,0,0,1,.08.2,1,1,0,0,0,.09.15A1,1,0,0,0,132,20Zm.77-.9a1.31,1.31,0,0,0,.17.69,1.76,1.76,0,0,0,.51.51c.42-.87.8-1.71,1.16-2.51s.64-1.51.88-2.12.41-1.11.51-1.48.12-.54,0-.54-.23.08-.43.26a7.9,7.9,0,0,0-.65.7c-.24.3-.48.63-.74,1a11.76,11.76,0,0,0-.71,1.17,11.42,11.42,0,0,0-.53,1.21A3.38,3.38,0,0,0,132.9,19.18Zm1.67-.17c.07-.16.13-.3.2-.44l.2-.45c.07-.15.13-.3.19-.44s.11-.29.16-.44l.09-.2c0-.06.05-.13.08-.2s.09-.27.13-.38a4.4,4.4,0,0,1,.17-.57.25.25,0,0,1,0-.08s0-.06,0-.08,0-.05,0-.05v0a.64.64,0,0,1-.09.21,2.08,2.08,0,0,1-.1.24l-.13.31q-.12.36-.3.78c-.12.28-.25.57-.39.86s-.25.6-.38.88l-.34.76c-.12.25-.23.5-.33.74h0l.12-.19A1.64,1.64,0,0,1,134,20c.05-.08.1-.17.16-.29A6.67,6.67,0,0,0,134.57,19ZM134,27.55l0,.06a.63.63,0,0,0-.06.17c0,.09,0,.17-.05.26s0,.2,0,.31a2.16,2.16,0,0,0,.06.57.69.69,0,0,0,.07.19.21.21,0,0,1,0,.06s0,0,0-.06,0-.06,0-.09a.31.31,0,0,1,0-.1,1.18,1.18,0,0,1,0-.27v-.3l0-.3a1,1,0,0,1,0-.25.66.66,0,0,1,0-.19Zm.63-1.66a.19.19,0,0,1,0-.08.15.15,0,0,0,0-.07l0,0,0,0a.08.08,0,0,0,0,.05.31.31,0,0,1,0,.08,1.8,1.8,0,0,0-.08.21,2.3,2.3,0,0,0-.09.25l-.09.3a3.57,3.57,0,0,0-.1.35c0,.06,0,.12,0,.18s0,.13,0,.2l-.07.38,0,.2c0,.06,0,.13,0,.2a1.28,1.28,0,0,0,0,.19.42.42,0,0,1,0,.19.65.65,0,0,1,0,.19,1.11,1.11,0,0,0,0,.17.11.11,0,0,1,0,.08.11.11,0,0,0,0,.08.31.31,0,0,0,0,.15.34.34,0,0,0,0,.15.11.11,0,0,0,0,.05l0,.05a.29.29,0,0,0,.06.11l.05.08.08.09s0,0,0,0h0l0,0a.24.24,0,0,1-.06-.11.37.37,0,0,1-.11-.19.08.08,0,0,1,0,0,.1.1,0,0,0,0-.06.3.3,0,0,1,0-.13.31.31,0,0,1,0-.08.29.29,0,0,0,0-.09s0-.05,0-.07a.17.17,0,0,1,0-.07.52.52,0,0,1,0-.17v-.38a.65.65,0,0,1,0-.19,1.15,1.15,0,0,1,0-.19.68.68,0,0,1,0-.19,1.5,1.5,0,0,0,0-.2.51.51,0,0,1,0-.2.68.68,0,0,0,0-.19.58.58,0,0,1,.06-.17,2.84,2.84,0,0,1,.08-.34c0-.11.06-.21.08-.31A2.56,2.56,0,0,1,134.65,25.89Z" transform="translate(-1.43 -11.9)"/><path class="cls-1" d="M148.94,23.74a1.37,1.37,0,0,1,.44.4,1.12,1.12,0,0,1,.19.63,2.24,2.24,0,0,1-.26.75,8.52,8.52,0,0,1-.7,1.21,14.75,14.75,0,0,1-1.08,1.4,10.93,10.93,0,0,1-1.39,1.33,7.56,7.56,0,0,1-1.61,1,4.21,4.21,0,0,1-1.76.39,2.27,2.27,0,0,1-1.24-.4,4.77,4.77,0,0,1-1.15-1,5.6,5.6,0,0,1-.84-1.4,3.89,3.89,0,0,1-.32-1.53,5.64,5.64,0,0,1,.24-1.55,9.07,9.07,0,0,1,.66-1.64,12.31,12.31,0,0,1,1-1.57,8.83,8.83,0,0,1,1.16-1.32,6,6,0,0,1,1.23-.92,2.46,2.46,0,0,1,1.21-.35,2,2,0,0,1,1.21.35,2.37,2.37,0,0,1,.68.78,2.16,2.16,0,0,1,.26.78c0,.23,0,.35-.05.35l-.13,0a.93.93,0,0,1,0,.29,3.69,3.69,0,0,1-.31,1.38,5,5,0,0,1-.82,1.32,4.52,4.52,0,0,1-1.19,1,2.82,2.82,0,0,1-1.43.39,2.07,2.07,0,0,1-.94-.19,2.73,2.73,0,0,1-.66-.45,5.79,5.79,0,0,0-.46,2.15,6.06,6.06,0,0,0,0,.73,3.05,3.05,0,0,0,.15.66,1.31,1.31,0,0,0,.3.5.73.73,0,0,0,.52.2,4.09,4.09,0,0,0,1.74-.37,6.37,6.37,0,0,0,1.51-.94,8.41,8.41,0,0,0,1.22-1.24,14.59,14.59,0,0,0,.93-1.29c.27-.41.48-.77.64-1.07s.26-.5.31-.6a.42.42,0,0,1,.59-.15Zm-8.36-.59a1,1,0,0,0,.12-.17.83.83,0,0,1,.12-.16.54.54,0,0,1,.1-.16.91.91,0,0,0,.11-.16l.18-.25.19-.22a1.29,1.29,0,0,0,.13-.18s.05-.05.05-.07l0,0,0,0,0,0,0,0s0,0-.05.07l-.15.16-.19.2a.53.53,0,0,1-.1.12.58.58,0,0,0-.11.15.76.76,0,0,0-.11.14l-.12.15-.11.17-.12.17-.21.36c0,.07-.06.13-.08.19a1.72,1.72,0,0,0-.09.19c0,.07,0,.13-.08.19a1.72,1.72,0,0,0-.09.19,1,1,0,0,0-.06.16.49.49,0,0,1-.06.17,3.19,3.19,0,0,1-.09.34,2.42,2.42,0,0,0-.06.28,1.8,1.8,0,0,0,0,.22.31.31,0,0,0,0,.19v-.06a.69.69,0,0,1,0-.13.25.25,0,0,0,0-.1.36.36,0,0,1,0-.11,2.47,2.47,0,0,0,.07-.29.58.58,0,0,0,.05-.14.49.49,0,0,1,0-.18.49.49,0,0,0,.06-.17,1.11,1.11,0,0,1,.07-.16.84.84,0,0,1,.08-.19,1.08,1.08,0,0,0,.08-.19l.1-.17a1.11,1.11,0,0,0,.09-.19,1.14,1.14,0,0,1,.1-.19A1.4,1.4,0,0,0,140.58,23.15Zm.53-1.11a.37.37,0,0,0-.06.1l-.05.09a.09.09,0,0,1,0,.06.09.09,0,0,0,0-.06l.06-.08.07-.09.23-.26a3,3,0,0,1,.3-.33c.05-.07.11-.13.16-.19l.19-.19.21-.2.22-.2a1.5,1.5,0,0,1,.23-.2l.25-.2a1.51,1.51,0,0,1,.26-.18,2.26,2.26,0,0,0,.26-.16,3.25,3.25,0,0,1,.59-.25,2.42,2.42,0,0,1,.59-.15h.29a1,1,0,0,1,.28.05h.13l.06,0,.06,0,.07,0,.06,0a.14.14,0,0,0,.11,0,1.94,1.94,0,0,1,.37.24.4.4,0,0,1,.15.1l.13.11a.27.27,0,0,1,.07.08.19.19,0,0,0,.07.06s.05.05.07.05a.16.16,0,0,1,0-.07.8.8,0,0,1-.15-.17l-.12-.09a.58.58,0,0,1-.13-.14.59.59,0,0,1-.19-.11,1.33,1.33,0,0,0-.19-.14.3.3,0,0,1-.13,0s-.05,0-.1-.07l-.15,0-.06,0-.07,0a2.11,2.11,0,0,0-.61,0l-.3,0a1.32,1.32,0,0,0-.33.08,3,3,0,0,0-.59.26,1.58,1.58,0,0,0-.29.17l-.28.18-.24.22-.24.21a5.35,5.35,0,0,0-.41.42l-.35.4a2.55,2.55,0,0,0-.27.35A1.91,1.91,0,0,1,141.11,22Zm.95,2.46a2.65,2.65,0,0,0,1.45-.38,3.44,3.44,0,0,0,1-.93,4.79,4.79,0,0,0,.58-1.18c.14-.42.26-.8.34-1.13h-.25a1.69,1.69,0,0,0-.87.29,4.54,4.54,0,0,0-.95.8,9.26,9.26,0,0,0-.92,1.15,10.54,10.54,0,0,0-.77,1.34A1.1,1.1,0,0,0,142.06,24.5ZM144.9,29l.19-.12.14-.11.13-.1-.13.1-.15.1-.2.11-.25.12a1,1,0,0,1-.28.11l-.16.07-.16.06a.47.47,0,0,1-.15.06l-.18,0-.16.05a.37.37,0,0,0-.16.05.86.86,0,0,1-.17,0l-.16,0-.3.07h-.27l-.23,0-.19,0h.19l.23,0,.27,0,.32,0a.4.4,0,0,1,.15,0l.18,0,.16,0a.49.49,0,0,0,.18-.05.37.37,0,0,1,.16-.05l.16-.06.31-.12.28-.15A.87.87,0,0,0,144.9,29Zm.21-6.71s0,0,0,0a.09.09,0,0,0,0,.06.11.11,0,0,1,0,.07c0,.06-.06.12-.09.19l-.14.25a1.37,1.37,0,0,1-.17.25,2.09,2.09,0,0,1-.21.3l-.12.14-.13.13-.15.14a.53.53,0,0,1-.14.12l-.15.12a.15.15,0,0,1-.08.05.24.24,0,0,0-.09.06,1.5,1.5,0,0,1-.34.16l-.16.07a.49.49,0,0,0-.17.06,1,1,0,0,1-.32.06l-.25.07h-.21l-.15,0h.63a.66.66,0,0,1,.15,0l.17,0,.17-.06.17-.06.17-.09.18-.08a.14.14,0,0,1,.09,0,.21.21,0,0,0,.08-.06l.15-.12a.43.43,0,0,0,.17-.12.86.86,0,0,1,.14-.13l.13-.15.13-.15a.65.65,0,0,1,.1-.15.76.76,0,0,0,.11-.14l.07-.15s.05-.08.07-.13a1.1,1.1,0,0,0,.12-.25c0-.07.05-.13.07-.19Z" transform="translate(-1.43 -11.9)"/></svg>